<svg width="20" height="20" fill="none" xmlns="http://www.w3.org/2000/svg"><g clip-path="url(#a)" fill="#fff"><path d="M9.09 1.616v8.115h10.775V0L9.091 1.616Zm10.102 7.441H9.764V2.19l9.428-1.38v8.248ZM0 9.832h8.418V1.683L0 2.93v6.903Zm.673-6.33 7.071-1.044v6.7H.674V3.502ZM9.09 18.384 19.866 20v-9.495H9.091v7.879Zm.674-7.206h9.428v8.047l-9.428-1.414v-6.633ZM0 17.07l8.418 1.247v-7.812H0v6.566Zm.673-5.892h7.071v6.364l-7.07-1.044v-5.32Z"/></g><defs><clipPath id="a"><path fill="#fff" d="M0 0h20v20H0z"/></clipPath></defs></svg>