<svg width="20" height="20" fill="none" xmlns="http://www.w3.org/2000/svg"><path d="M.558 5.764v.002a6.176 6.176 0 0 0-.004 1.662C.81 8.9 1.748 10.523 3.497 12.346c1.602 1.665 3.478 3.172 5.85 4.695l.07.045c.199.127.346.222.46.293l.122.075c.663-.384 2.316-1.5 3.211-2.175 3.585-2.716 5.676-5.353 6.169-7.54a5.255 5.255 0 0 0-1.096-4.474c-1.49-1.751-3.815-2.249-5.852-1.27l-.001.001c-.63.3-1.405.96-1.808 1.53a3.83 3.83 0 0 1-.16.215 1.312 1.312 0 0 1-.08.093.663.663 0 0 1-.155.115.51.51 0 0 1-.23.055.501.501 0 0 1-.271-.08h-.002a.551.551 0 0 1-.124-.107 1.964 1.964 0 0 1-.081-.096 6.724 6.724 0 0 1-.193-.253 4.71 4.71 0 0 0-1.693-1.434c-.75-.386-1.383-.538-2.234-.53-.27.003-.6.027-.72.048a4.975 4.975 0 0 0-3.234 2.041 5.655 5.655 0 0 0-.887 2.171Zm9.558 11.753ZM10.31 3.11a.798.798 0 0 0 .026.03l-.018-.017a.367.367 0 0 0-.01-.01 3.528 3.528 0 0 0-.094.127l.096-.13Z" fill="#fff" stroke="#fff"/></svg>