<svg width="20" height="20" fill="none" xmlns="http://www.w3.org/2000/svg"><path d="M9.344.089c-.125.05-.294.14-.372.195C8.89.34 6.912 2.303 4.57 4.646 1.139 8.086.297 8.95.214 9.114c-.376.76-.25 1.59.325 2.17.36.357.819.545 1.344.545h.266v3.135c0 2.12.016 3.198.043 3.34.149.712.725 1.359 1.438 1.606.258.09.278.09 2.17.09 1.864 0 1.907 0 2.013-.082.058-.043.145-.13.188-.188.082-.106.082-.157.101-2.724l.02-2.618.118-.192c.148-.239.45-.43.74-.466.11-.016.658-.02 1.218-.012l1.018.012.208.114c.196.11.321.239.442.454.043.082.06.564.075 2.712.02 2.563.02 2.614.102 2.72.043.058.129.145.188.188.105.082.149.082 2.013.082 1.892 0 1.911 0 2.17-.09.712-.247 1.288-.894 1.437-1.607.027-.14.043-1.219.043-3.339V11.83h.267c.736 0 1.378-.392 1.695-1.038.134-.27.134-.278.134-.804 0-.893.45-.364-4.579-5.392C10.413-.409 10.915.022 10.061.002c-.443-.007-.51 0-.717.087Zm.968 1.12c.23.11 8.416 8.312 8.503 8.512.082.2.074.368-.024.564-.145.302-.266.345-1.022.369-.71.02-.76.035-.948.29-.082.105-.082.149-.102 3.66l-.02 3.554-.11.184a1.081 1.081 0 0 1-.234.283c-.274.211-.357.219-1.853.219h-1.386v-2.195c0-1.438-.016-2.26-.043-2.398-.153-.737-.744-1.371-1.504-1.61-.259-.083-.345-.087-1.547-.087-1.403 0-1.473.008-1.974.263-.498.25-.96.87-1.077 1.434-.028.137-.044.96-.044 2.398v2.195H5.541c-1.496 0-1.578-.008-1.853-.22-.07-.05-.176-.18-.235-.282l-.11-.184-.019-3.554c-.02-3.511-.02-3.554-.102-3.66-.188-.255-.239-.27-.948-.29-.755-.024-.877-.067-1.022-.369a.624.624 0 0 1-.023-.564C1.31 9.525 9.5 1.323 9.728 1.209a.616.616 0 0 1 .584 0Z" fill="#fff"/></svg>