<svg width="27" height="26" fill="none" xmlns="http://www.w3.org/2000/svg"><path d="M5.06 18.265a.81.81 0 0 1 .58-.244H25.59c.365 0 .547.449.29.712l-3.942 4.023a.81.81 0 0 1-.578.244H1.409c-.365 0-.547-.45-.29-.712l3.942-4.023ZM5.06 3.244A.832.832 0 0 1 5.64 3H25.59c.365 0 .547.45.29.712l-3.942 4.023a.81.81 0 0 1-.578.244H1.409c-.365 0-.547-.449-.29-.712l3.942-4.023ZM21.94 10.706a.81.81 0 0 0-.58-.244H1.41c-.365 0-.547.45-.29.713l3.942 4.023a.81.81 0 0 0 .578.243h19.952c.365 0 .547-.449.29-.712l-3.942-4.023Z" fill="#fff"/></svg>