<svg width="26" height="26" fill="none" xmlns="http://www.w3.org/2000/svg"><path d="M4.895 3.01a2.128 2.128 0 0 0-1.386.738c-.286.342-.454.741-.498 1.182-.014.144-.014 15.995 0 16.14a2.135 2.135 0 0 0 1.918 1.92 2.15 2.15 0 0 0 1.874-.803c.1-.129 4.335-6.428 4.365-6.493.024-.05.027-.068.027-.167 0-.104-.002-.114-.032-.176-.124-.253-.422-.345-.64-.198-.025.016-.97.832-2.104 1.814a204.596 204.596 0 0 1-2.102 1.807c-.074.04-.152.019-.205-.058l-.022-.033.002-5.643c.003-5.624.003-5.642.023-5.669a.188.188 0 0 1 .21-.056c.015.007 2.717 3.236 6.273 7.495 3.436 4.116 6.276 7.514 6.312 7.553.32.343.809.576 1.309.627.133.013.718.013.852 0a2.136 2.136 0 0 0 1.918-1.92c.014-.146.014-15.997 0-16.14a2.133 2.133 0 0 0-2.2-1.928 2.136 2.136 0 0 0-1.638.842c-.112.149-4.321 6.411-4.342 6.458a.444.444 0 0 0-.03.23.46.46 0 0 0 .478.382c.133-.01.173-.037.538-.354a2232.299 2232.299 0 0 1 3.75-3.268.75.75 0 0 1 .129-.098c.069-.027.142-.003.19.062l.02.028.004 5.65.002 5.649-.022.033a.287.287 0 0 1-.05.053.199.199 0 0 1-.165.013c-.02-.01-2.354-2.798-6.284-7.507A1922.159 1922.159 0 0 0 7.021 3.59c-.302-.3-.69-.493-1.13-.566-.085-.013-.186-.017-.51-.02a8.426 8.426 0 0 0-.486.007Z" fill="#fff"/></svg>