<svg width="20" height="20" fill="none" xmlns="http://www.w3.org/2000/svg"><g clip-path="url(#a)"><path d="M16.11 13.525a.826.826 0 0 0-.095-.392c-.053-.113-.131-.248-.222-.405l-.007-.011v-.002l-.02-.033v-.001l-1.393-2.383-.001-.001-.016-.027-.007-.011c-.092-.156-.171-.29-.244-.392a.836.836 0 0 0-.293-.275.789.789 0 0 0-.716 0l-.003.002a.856.856 0 0 0-.296.283 6.26 6.26 0 0 0-.26.424l-1.387 2.383-.005.009-.007.01c-.096.167-.178.307-.233.424a.84.84 0 0 0-.098.401v.003a.797.797 0 0 0 .36.622l.163-.252m4.78-.376a.792.792 0 0 1-.358.625.845.845 0 0 1-.4.118c-.132.011-.297.011-.49.011H12.053c-.194 0-.358 0-.489-.01a.843.843 0 0 1-.399-.117l.164-.251m4.78-.376-.299-.015m.3.015-.3-.015m-4.48.39c.12.08.326.08.736.08h2.781c.41 0 .617 0 .74-.082a.492.492 0 0 0 .223-.388m-4.48.39 4.48-.39m-11.48.643a.85.85 0 0 0 .397.116c.129.01.292.01.485.01H7.212c.413 0 .68 0 .924-.067l.005-.001c.269-.08.515-.222.719-.418.188-.179.32-.411.52-.76l.023-.04.006-.012v-.001l2.517-4.448V8.53l.01-.015c.21-.367.344-.602.405-.856.065-.27.065-.554 0-.824-.06-.247-.191-.477-.39-.824l-.022-.04-.005-.008-.985-1.719a6.35 6.35 0 0 0-.26-.434.846.846 0 0 0-.302-.29.794.794 0 0 0-.72 0 .846.846 0 0 0-.301.29c-.077.111-.16.26-.26.434l-4.792 8.446-.006.011c-.096.168-.176.31-.231.428a.852.852 0 0 0-.097.4v.004c.016.25.146.48.36.619ZM19.7 10c0 5.357-4.343 9.7-9.7 9.7C4.643 19.7.3 15.357.3 10 .3 4.643 4.643.3 10 .3c5.357 0 9.7 4.343 9.7 9.7Z" stroke="#fff" stroke-width=".6"/></g><defs><clipPath id="a"><path fill="#fff" d="M0 0h20v20H0z"/></clipPath></defs></svg>