<svg width="20" height="20" fill="none" xmlns="http://www.w3.org/2000/svg"><g clip-path="url(#a)" fill="#fff"><path d="M10 20a10 10 0 1 1 10-10 10.012 10.012 0 0 1-10 10ZM10 .667A9.333 9.333 0 1 0 19.333 10 9.344 9.344 0 0 0 10 .667Z"/><path d="M13.159 4.444c-.635 0-1.244.252-1.694.701a2.405 2.405 0 0 0-.704 1.696v2.656c-.247.017-.5.027-.761.027-.262 0-.513.011-.761.026V6.84a2.407 2.407 0 0 0-.716-1.674 2.394 2.394 0 0 0-3.363 0 2.407 2.407 0 0 0-.716 1.675v6.349c.01.63.267 1.232.716 1.675a2.394 2.394 0 0 0 4.079-1.675v-2.657c.247-.016.5-.027.76-.027.263 0 .514-.01.762-.025v2.709c.01.63.267 1.232.716 1.675a2.394 2.394 0 0 0 3.363 0 2.407 2.407 0 0 0 .715-1.675V6.84a2.406 2.406 0 0 0-.704-1.695 2.392 2.392 0 0 0-1.693-.7Zm-6.318.982a1.412 1.412 0 0 1 1.415 1.415v2.813a8.047 8.047 0 0 0-2.037.577 3.7 3.7 0 0 0-.79.473V6.841A1.42 1.42 0 0 1 6.84 5.426Zm1.415 7.764a1.42 1.42 0 0 1-1.415 1.419 1.413 1.413 0 0 1-1.415-1.419v-.637c0-.563.445-1.096 1.19-1.427a6.961 6.961 0 0 1 1.64-.481v2.545Zm4.902 1.414a1.412 1.412 0 0 1-1.414-1.414v-2.813a8.046 8.046 0 0 0 2.037-.578c.282-.124.547-.283.79-.473v3.864a1.42 1.42 0 0 1-1.412 1.414Zm.226-5.703a6.959 6.959 0 0 1-1.64.481V6.841a1.42 1.42 0 0 1 1.415-1.42 1.413 1.413 0 0 1 1.414 1.42v.636c0 .56-.444 1.094-1.19 1.424Z"/></g><defs><clipPath id="a"><path fill="#fff" d="M0 0h20v20H0z"/></clipPath></defs></svg>