<svg width="20" height="20" fill="none" xmlns="http://www.w3.org/2000/svg"><g clip-path="url(#a)" fill="#fff"><path d="M10 20a10 10 0 1 1 10-10 10.012 10.012 0 0 1-10 10ZM10 .667A9.333 9.333 0 1 0 19.333 10 9.344 9.344 0 0 0 10 .667Z"/><path d="M15.237 4.444h1.4l-5.679 6.624a.468.468 0 0 0-.01.598l3.272 3.89h-1.458L9.74 11.95l-.153-.196a.468.468 0 0 1 .01-.598l5.64-6.712Z"/><path d="M12.081 11.666c-.095-.108-.124-.265-.095-.402a.624.624 0 0 1 .134-.215l.374-.422 4.173 4.928h-1.324s-2.446-2.92-3.262-3.89ZM4.791 15.555H3.333l4.47-5.28a.454.454 0 0 0 0-.589L3.372 4.444h1.4l4.46 5.282c.116.156.135.382.01.529-1.17 1.381-4.45 5.3-4.45 5.3ZM7.228 4.444H5.885l4.135 4.89s.01-.01.47-.569c.124-.147.153-.333.01-.48-.864-.901-3.272-3.84-3.272-3.84ZM11.255 7.854l2.869-3.41H12.76l-1.496 1.784-.432.519a.468.468 0 0 0-.01.598c.106.127.432.51.432.51ZM8.762 12.146l-2.868 3.41h1.353l1.496-1.784.432-.52a.468.468 0 0 0 .01-.597l-.423-.51Z"/></g><defs><clipPath id="a"><path fill="#fff" d="M0 0h20v20H0z"/></clipPath></defs></svg>