<svg width="20" height="20" fill="none" xmlns="http://www.w3.org/2000/svg"><g clip-path="url(#a)" fill="#fff"><path d="M10 20a10 10 0 1 1 10-10 10.012 10.012 0 0 1-10 10ZM10 .667A9.333 9.333 0 1 0 19.333 10 9.344 9.344 0 0 0 10 .667Z"/><path fill-rule="evenodd" clip-rule="evenodd" d="M17.778 11.368h-1.532l-1.087-.798-1.084.794h-1.294l-.62-.644h-2.133l.54-.572h1.05l-.8-.837-2.79 2.911H6.733l.808-.845H6.192l-.73-1.753-.722 1.74H3.37l-1.149-2.73h1.05l.773 1.859.77-1.85H6.11l.768 1.846.768-1.847H8.7l-1.16 2.735.259-.27 2.367-2.47h1.303l1.97 2.06.947-.698-2.999-2.221h1.54l4.85 3.59Zm-1.52-1.651-.723-.531.721-.527 1.459.001-1.457 1.057Z"/></g><defs><clipPath id="a"><path fill="#fff" d="M0 0h20v20H0z"/></clipPath></defs></svg>