<svg width="20" height="20" fill="none" xmlns="http://www.w3.org/2000/svg"><g clip-path="url(#a)" fill="#fff"><path d="M13.403 7.828a.921.921 0 0 0-.834 0l-1.944 1.094-1.32.697-1.91 1.094a.921.921 0 0 1-.833 0L5.07 9.851a.803.803 0 0 1-.416-.697V7.496c0-.265.139-.53.416-.697l1.493-.829a.921.921 0 0 1 .834 0l1.493.863a.803.803 0 0 1 .416.696v1.095l1.32-.73V6.766a.811.811 0 0 0-.417-.696L7.43 4.51a.921.921 0 0 0-.833 0L3.75 6.104a.726.726 0 0 0-.417.663v3.118c0 .265.14.53.417.697l2.812 1.558a.921.921 0 0 0 .834 0l1.91-1.061 1.319-.73 1.91-1.061a.922.922 0 0 1 .833 0l1.493.83a.802.802 0 0 1 .417.696v1.658c0 .265-.14.53-.417.697l-1.458.829a.921.921 0 0 1-.834 0l-1.493-.83a.803.803 0 0 1-.416-.696V11.41l-1.32.73v1.094c0 .265.14.53.417.696l2.812 1.56a.921.921 0 0 0 .834 0l2.812-1.56a.802.802 0 0 0 .417-.696v-3.151a.811.811 0 0 0-.417-.697l-2.812-1.558Z"/><path d="M10 20a10 10 0 1 1 10-10 10.012 10.012 0 0 1-10 10ZM10 .667A9.333 9.333 0 1 0 19.333 10 9.344 9.344 0 0 0 10 .667Z"/></g><defs><clipPath id="a"><path fill="#fff" d="M0 0h20v20H0z"/></clipPath></defs></svg>