<svg width="20" height="20" fill="none" xmlns="http://www.w3.org/2000/svg"><g clip-path="url(#a)" fill="#fff"><path d="M10 20a10 10 0 1 1 10-10 10.012 10.012 0 0 1-10 10ZM10 .667A9.333 9.333 0 1 0 19.333 10 9.344 9.344 0 0 0 10 .667Z"/><path d="M16.5 8.127c-.602-.53-1.436-1.337-2.116-1.91l-.04-.027a.78.78 0 0 0-.223-.118c-1.637-.29-9.259-1.645-9.407-1.627a.29.29 0 0 0-.117.042l-.038.028a.423.423 0 0 0-.105.16l-.01.026v.156c.858 2.27 4.246 9.709 4.913 11.454.04.119.117.344.26.356h.031c.077 0 .402-.409.402-.409s5.82-6.707 6.408-7.421c.076-.088.144-.183.201-.283a.44.44 0 0 0-.02-.233.46.46 0 0 0-.139-.194Zm-4.957.78 2.484-1.957 1.457 1.276-3.94.682Zm-.964-.127L6.303 5.45l6.918 1.212L10.58 8.78Zm.386.872 4.376-.67-5.003 5.73.627-5.06Zm-5.243-3.87 4.5 3.628-.652 5.305-3.848-8.934Z"/></g><defs><clipPath id="a"><path fill="#fff" d="M0 0h20v20H0z"/></clipPath></defs></svg>