<svg width="20" height="20" fill="none" xmlns="http://www.w3.org/2000/svg"><path d="M14.305 2.226a5.276 5.276 0 0 0-.872-.703L13.938.46c.067-.167 0-.367-.166-.433-.167-.067-.367 0-.434.166l-.48 1.01C12.2.887 11.378.66 10.37.66c-1.018 0-1.877.207-2.589.542L7.302.192C7.236.026 7.036-.04 6.87.026c-.167.066-.233.266-.167.433l.503 1.059c-1.433.915-2.118 2.377-2.203 3.443l-.034.367h10.738l-.034-.367c-.066-.7-.466-1.8-1.367-2.735Zm-8.57 2.435c.3-1.434 1.7-3.335 4.669-3.335.942 0 1.723.218 2.358.557.029.032.066.06.11.077.02.02.052.028.081.03 1.195.715 1.827 1.858 2.019 2.67H5.735ZM2.667 5.995C1.734 5.995 1 6.728 1 7.662v4.668c0 .934.734 1.668 1.667 1.668.934 0 1.668-.734 1.668-1.668V7.662c0-.934-.734-1.667-1.668-1.667Zm1 6.335c0 .567-.433 1-1 1s-1-.433-1-1V7.662c0-.567.433-1 1-1s1 .433 1 1v4.668ZM18.007 5.995c-.934 0-1.668.733-1.668 1.667v4.668c0 .934.734 1.668 1.668 1.668.933 0 1.667-.734 1.667-1.668V7.662c0-.934-.734-1.667-1.667-1.667Zm1 6.335c0 .567-.434 1-1 1-.567 0-1-.433-1-1V7.662c0-.567.433-1 1-1 .566 0 1 .433 1 1v4.668ZM5.002 15.665h1.333v3.001c0 .734.6 1.334 1.334 1.334.734 0 1.334-.6 1.334-1.334v-3.001h2.668v3.001c0 .734.6 1.334 1.334 1.334.733 0 1.333-.6 1.333-1.334v-3.001h1.334v-9.67H5.002v9.67Zm.666-9.004h9.337v8.337h-1.333v3.668c0 .367-.3.667-.667.667a.669.669 0 0 1-.667-.667v-3.668H8.336v3.668c0 .367-.3.667-.667.667a.669.669 0 0 1-.667-.667v-3.668H5.668V6.661Z" fill="#fff"/><path d="M8.67 2.66c-.367 0-.667.3-.667.667 0 .367.3.667.667.667.367 0 .667-.3.667-.667 0-.367-.3-.667-.667-.667ZM12.004 2.66c-.367 0-.667.3-.667.667 0 .367.3.667.667.667.367 0 .667-.3.667-.667 0-.367-.3-.667-.667-.667Z" fill="#fff"/></svg>