<svg width="20" height="20" fill="none" xmlns="http://www.w3.org/2000/svg"><g clip-path="url(#a)"><path d="M18.25 14.11v-.421l-.175-.105c-1.578-.842-2.314-2.034-2.314-3.647 0-1.367.596-2.524 1.683-3.296l.42-.21-.28-.35c-.7-.877-1.893-2.07-3.751-2.07a2.72 2.72 0 0 0-1.01.217c.769-.833 1.185-1.89 1.185-3.091 0-.21 0-.421-.035-.667V.365L13.938.26c-.035-.07-.07-.175-.175-.21-.105-.035-.176-.07-.28-.035C11.622.54 9.66 2.013 9.66 4.608c0 .15 0 .3.016.465-.305-.08-.573-.23-.857-.395-.491-.28-1.017-.596-1.823-.596C3.454 4.082 1 7.308 1 10.182c0 1.578.49 4.313 1.893 6.838C3.98 18.983 5.243 20 6.575 20c.49 0 .982-.175 1.543-.35.56-.246 1.192-.456 1.823-.456.526 0 1.052.21 1.578.385.526.176 1.087.386 1.648.386 2.77 0 5.119-3.471 5.119-5.645 0-.07-.035-.14-.035-.21ZM13.273.82a.595.595 0 0 1 0 .352c0 2.384-1.788 3.436-2.91 3.856-.035-.175-.035-.315-.035-.42 0-2.034 1.472-3.261 2.945-3.787Zm4.312 13.36v.105c0 2.63-2.734 4.944-4.417 4.944-.456 0-.947-.176-1.438-.351-.596-.21-1.192-.42-1.823-.42-.772 0-1.473.245-2.069.49-.456.175-.911.35-1.262.35-1.332 0-2.42-1.402-3.05-2.594C2.191 14.284 1.7 11.69 1.7 10.182c0-3.19 2.805-5.4 5.295-5.4.596 0 1.016.246 1.507.527.491.28.982.56 1.683.56.912 0 1.648-.35 2.28-.665.525-.246.946-.456 1.402-.456 1.367 0 2.314.736 2.98 1.508-1.122.876-1.753 2.173-1.753 3.681 0 1.823.806 3.19 2.49 4.138v.105Z" fill="#fff"/></g><defs><clipPath id="a"><path fill="#fff" d="M0 0h20v20H0z"/></clipPath></defs></svg>