<svg width="14" height="15" fill="none" xmlns="http://www.w3.org/2000/svg"><g clip-path="url(#a)"><path d="M3.794 2.858C3.663 2.933.034 5.973.013 6.027a.255.255 0 0 0-.009.128c.011.043.618.563 1.868 1.601 1.02.846 1.878 1.553 1.908 1.571.09.051.178.04.25-.032l.068-.064V7.836h3.021c2.193 0 3.038-.008 3.087-.03.039-.018.08-.05.09-.074a5.47 5.47 0 0 0 .036-.6l.014-.556 1.531 1.271c.842.701 1.531 1.285 1.531 1.298 0 .016-.689.6-1.531 1.299l-1.531 1.27-.014-.577c-.014-.565-.014-.576-.08-.627-.062-.048-.155-.05-3.256-.05-3 0-3.196.002-3.251.045a.27.27 0 0 0-.074.134c-.014.072-.003.099.066.168l.082.08h6.076v.697c0 .658.002.698.054.75.08.077.18.093.263.04.038-.025.64-.517 1.331-1.093l1.81-1.499c.301-.251.57-.479.594-.51.071-.084.06-.191-.025-.282-.106-.11-3.647-3.038-3.719-3.075-.092-.049-.169-.038-.24.034l-.068.065v1.394H6.85c-3.024 0-3.043 0-3.103.054-.033.032-.063.059-.066.061-.003.003-.01.263-.02.573l-.015.57-1.532-1.271C1.273 6.696.584 6.113.584 6.099c0-.013.69-.597 1.531-1.295l1.531-1.272.014.576c.014.565.014.575.08.626.062.048.155.051 3.256.051 3 0 3.197-.003 3.251-.048a.25.25 0 0 0 .074-.131c.014-.073.003-.1-.066-.169l-.082-.08H4.098v-.68c0-.375-.009-.701-.017-.726-.019-.045-.147-.12-.208-.12a.214.214 0 0 0-.079.027Z" fill="#fff"/></g><defs><clipPath id="a"><path fill="#fff" transform="translate(0 .809)" d="M0 0h14v13.705H0z"/></clipPath></defs></svg>