<svg width="20" height="20" fill="none" xmlns="http://www.w3.org/2000/svg"><g clip-path="url(#a)"><path d="M8.966-.025a10.205 10.205 0 0 0-4.51 1.634 8.89 8.89 0 0 0-1.503 1.23C1.434 4.337.46 6.219.093 8.369.014 8.842 0 9.053 0 9.954c0 .9.012 1.111.094 1.584.684 3.995 3.568 7.143 7.438 8.129.897.228 1.385.285 2.465.285 1.063 0 1.515-.053 2.403-.269 1.626-.403 3.207-1.254 4.4-2.378.957-.9 1.63-1.8 2.18-2.933a9.794 9.794 0 0 0 .94-2.973c.106-.692.106-2.207 0-2.891a9.657 9.657 0 0 0-.94-2.973 9.851 9.851 0 0 0-4.4-4.484c-.99-.51-1.83-.79-2.913-.982-.485-.081-.753-.106-1.487-.114-.493-.008-1.039 0-1.214.02Zm.624 2.79v1.976h-.11c-.277 0-1.337-.09-1.764-.143-.44-.061-1.19-.183-1.21-.204-.008-.004.053-.167.134-.366.391-.978.929-1.833 1.503-2.403.38-.379.656-.566 1.068-.737.42-.171.379-.37.379 1.877ZM10.995.99c.73.362 1.373 1.075 1.955 2.174.208.391.567 1.21.538 1.234-.016.02-.965.171-1.352.216-.363.045-1.402.127-1.618.127h-.114V.778l.135.028c.069.013.277.098.456.184Zm-3.532.154c-.033.041-.138.163-.232.277-.456.53-1.043 1.556-1.369 2.395l-.159.4-.122-.025c-.257-.053-1.483-.48-1.792-.627l-.326-.151.468-.4a9.62 9.62 0 0 1 3.015-1.755c.574-.203.599-.207.517-.114Zm5.532.094c1.06.362 2.171 1.006 3.068 1.776l.468.399-.326.15c-.31.147-1.535.575-1.792.628l-.122.024-.16-.399c-.341-.867-.908-1.861-1.368-2.395-.277-.321-.293-.346-.273-.346.012 0 .24.073.505.163Zm-9.54 3.055c.488.224 1.719.651 1.882.651.106 0 .097.09-.041.64-.249.997-.424 2.235-.493 3.482l-.029.48H.778l.029-.37c.126-1.69.871-3.58 1.935-4.916l.17-.212.131.057c.07.033.257.114.412.188Zm14.209.545c.509.766.945 1.69 1.19 2.542.178.63.35 1.604.35 2.012v.154H15.22l-.029-.48c-.07-1.247-.245-2.485-.493-3.482-.077-.306-.13-.579-.118-.6.012-.024.057-.04.094-.04.138 0 1.507-.484 1.943-.688l.448-.208.134.15a7.9 7.9 0 0 1 .465.64Zm-10.759.448c.676.118 1.784.228 2.24.228.176 0 .343.013.38.025.056.02.065.236.065 2.016v1.991H5.585l.029-.578c.053-1.08.211-2.163.46-3.18.085-.351.167-.6.195-.6.025 0 .31.045.636.098Zm7.015.501c.252 1.03.407 2.106.46 3.181l.029.578h-4.005V7.555c0-1.78.008-1.996.066-2.016.036-.012.203-.025.374-.025.457 0 1.577-.114 2.188-.22.823-.146.717-.203.888.493Zm-9.117 5.05c.07 1.25.244 2.489.493 3.486.077.306.134.575.122.595-.012.02-.085.049-.167.061-.253.05-1.255.4-1.67.583-.224.102-.469.207-.538.24l-.13.057-.171-.212C1.678 14.311.932 12.422.807 10.731l-.029-.37h3.996l.029.476Zm4.787 1.515v1.992l-.09.024a2.474 2.474 0 0 1-.383.025c-.436 0-1.552.114-2.212.228-.326.053-.611.098-.636.098-.028 0-.11-.249-.195-.603a16.965 16.965 0 0 1-.46-3.177l-.029-.578H9.59v1.991Zm4.79-1.413a16.836 16.836 0 0 1-.46 3.177c-.086.354-.167.603-.196.603-.024 0-.31-.045-.635-.098-.676-.118-1.784-.228-2.24-.228-.176 0-.343-.012-.38-.025-.056-.02-.065-.236-.065-2.016v-1.991h4.005l-.029.578Zm4.824-.423c0 .41-.176 1.405-.35 2.003-.327 1.108-.93 2.281-1.602 3.128l-.17.212-.131-.057c-.07-.033-.314-.138-.538-.24-.415-.184-1.418-.534-1.67-.583-.082-.012-.155-.04-.167-.06-.012-.021.045-.29.122-.596.248-.99.424-2.231.493-3.486l.028-.476H19.204v.155Zm-9.614 6.63v1.983l-.13-.028c-.233-.04-.775-.338-1.056-.566-.485-.404-.95-1.014-1.36-1.792-.204-.383-.567-1.21-.542-1.234.02-.017.998-.171 1.377-.22a20.791 20.791 0 0 1 1.499-.118l.212-.004v1.979Zm1.609-1.939c.313.02.737.061.937.086.387.045 1.336.195 1.352.216.029.024-.33.843-.538 1.234-.411.778-.875 1.389-1.36 1.792-.281.228-.823.525-1.051.566l-.135.028v-3.963h.114c.061 0 .367.021.68.041Zm-5.337.884c.342.876.904 1.85 1.422 2.456.122.142.22.269.212.273-.037.036-1.064-.359-1.552-.599-.836-.407-1.516-.871-2.278-1.556l-.203-.179.427-.187c.465-.204 1.573-.579 1.772-.599.025 0 .115.175.2.391Zm9.35-.122c.37.122.818.29.993.375l.326.15-.468.4c-.896.77-2.009 1.413-3.068 1.775-.265.09-.489.159-.497.15-.008-.003.09-.13.212-.272.521-.611 1.063-1.552 1.422-2.456l.159-.399.122.024c.07.017.428.127.798.253Z" fill="#fff" fill-opacity=".9"/></g><defs><clipPath id="a"><path fill="#fff" d="M0 0h20v20H0z"/></clipPath></defs></svg>