<svg width="20" height="20" fill="none" xmlns="http://www.w3.org/2000/svg"><path d="M10 20a10 10 0 1 1 10-10 10.012 10.012 0 0 1-10 10ZM10 .667A9.333 9.333 0 1 0 19.333 10 9.344 9.344 0 0 0 10 .667Z" fill="#fff"/><path d="M12.987 9c-.102 0-.2-.04-.272-.112L10 6.178l-2.715 2.71a.384.384 0 0 1-.543 0L5.112 7.26a.383.383 0 0 1 0-.542L9.73 2.112a.384.384 0 0 1 .543 0l4.616 4.608a.383.383 0 0 1 0 .542l-1.63 1.626a.382.382 0 0 1-.271.112ZM10 5.253c.102 0 .2.04.271.111l2.716 2.71 1.086-1.083L10 2.925 5.927 6.991l1.086 1.084 2.716-2.71A.384.384 0 0 1 10 5.252ZM10 18a.38.38 0 0 1-.271-.112L5.112 13.28a.383.383 0 0 1 0-.542l1.63-1.626a.385.385 0 0 1 .543 0L10 13.822l2.715-2.71a.384.384 0 0 1 .543 0l1.63 1.626a.383.383 0 0 1 0 .542l-4.617 4.607A.382.382 0 0 1 10 18Zm-4.073-4.991L10 17.074l4.073-4.065-1.086-1.084-2.716 2.71a.385.385 0 0 1-.542 0l-2.716-2.71-1.086 1.084Z" fill="#fff"/><path d="M10 12a.381.381 0 0 1-.27-.112L8.112 10.27a.382.382 0 0 1 0-.54L9.73 8.112a.381.381 0 0 1 .54 0l1.618 1.618a.382.382 0 0 1 0 .54l-1.618 1.618A.381.381 0 0 1 10 12Zm-1.08-2L10 11.08 11.08 10 10 8.92 8.92 10ZM16 12a.381.381 0 0 1-.27-.112l-1.618-1.618a.382.382 0 0 1 0-.54l1.618-1.618a.381.381 0 0 1 .54 0l1.618 1.618a.382.382 0 0 1 0 .54l-1.618 1.618A.381.381 0 0 1 16 12Zm-1.079-2L16 11.08 17.08 10 16 8.92 14.921 10ZM4 12a.381.381 0 0 1-.27-.112L2.112 10.27a.382.382 0 0 1 0-.54L3.73 8.112a.381.381 0 0 1 .54 0L5.888 9.73a.382.382 0 0 1 0 .54L4.27 11.888A.381.381 0 0 1 4 12Zm-1.08-2L4 11.08 5.079 10 4 8.92 2.92 10Z" fill="#fff"/></svg>