<svg width="19" height="19" fill="none" xmlns="http://www.w3.org/2000/svg"><path d="M7.478 1.24c-.153.066-.308.256-.334.404-.012.067-.015 3.644-.012 7.956l.012 7.838.077.1c.041.056.123.137.179.178.1.078.14.078 2.1.078s2 0 2.1-.078a1.01 1.01 0 0 0 .178-.178l.078-.1V1.562l-.078-.1a1.013 1.013 0 0 0-.178-.178c-.1-.078-.148-.078-2.055-.085-1.57-.008-1.978 0-2.067.04ZM13.415 5.99c-.152.066-.308.256-.334.404-.011.067-.015 2.575-.011 5.581.011 5.448.011 5.463.089 5.563.04.056.122.137.178.178.1.078.141.078 2.1.078 1.96 0 2 0 2.1-.078a1.01 1.01 0 0 0 .179-.178c.078-.1.078-.104.078-5.663s0-5.563-.078-5.663a1.013 1.013 0 0 0-.178-.178c-.1-.078-.149-.078-2.056-.085-1.57-.008-1.978 0-2.067.04ZM1.54 10.74c-.152.066-.308.255-.334.404-.011.067-.019 1.507-.011 3.206.011 3.05.011 3.088.089 3.188.04.056.122.137.178.178.1.078.141.078 2.1.078 1.96 0 2 0 2.1-.078a1.01 1.01 0 0 0 .179-.178c.078-.1.078-.126.078-3.288s0-3.188-.078-3.288a1.01 1.01 0 0 0-.178-.178c-.1-.078-.149-.078-2.056-.085-1.57-.008-1.978 0-2.067.04Z" fill="#962FED"/></svg>