<svg width="56" height="56" viewBox="0 0 56 56" fill="none" xmlns="http://www.w3.org/2000/svg">
<path d="M28.0003 4.6665C40.887 4.6665 51.3337 15.1132 51.3337 27.9998C51.3337 40.8865 40.887 51.3332 28.0003 51.3332C15.1137 51.3332 4.66699 40.8865 4.66699 27.9998C4.66699 15.1132 15.1137 4.6665 28.0003 4.6665ZM28.0003 7.58317C16.7245 7.58317 7.58366 16.724 7.58366 27.9998C7.58366 39.2757 16.7245 48.4165 28.0003 48.4165C39.2761 48.4165 48.417 39.2757 48.417 27.9998C48.417 16.724 39.2761 7.58317 28.0003 7.58317ZM38.0732 20.552C38.6427 21.1215 38.6427 22.0449 38.0732 22.6144L25.2399 35.4477C24.6703 36.0172 23.747 36.0172 23.1775 35.4477L17.9275 30.1977C17.3579 29.6282 17.3579 28.7048 17.9275 28.1353C18.497 27.5658 19.4203 27.5658 19.9899 28.1353L24.2087 32.3541L36.0108 20.552C36.5803 19.9825 37.5037 19.9825 38.0732 20.552Z" fill="#3042FF"/>
<path d="M28.0003 4.6665C40.887 4.6665 51.3337 15.1132 51.3337 27.9998C51.3337 40.8865 40.887 51.3332 28.0003 51.3332C15.1137 51.3332 4.66699 40.8865 4.66699 27.9998C4.66699 15.1132 15.1137 4.6665 28.0003 4.6665ZM28.0003 7.58317C16.7245 7.58317 7.58366 16.724 7.58366 27.9998C7.58366 39.2757 16.7245 48.4165 28.0003 48.4165C39.2761 48.4165 48.417 39.2757 48.417 27.9998C48.417 16.724 39.2761 7.58317 28.0003 7.58317ZM38.0732 20.552C38.6427 21.1215 38.6427 22.0449 38.0732 22.6144L25.2399 35.4477C24.6703 36.0172 23.747 36.0172 23.1775 35.4477L17.9275 30.1977C17.3579 29.6282 17.3579 28.7048 17.9275 28.1353C18.497 27.5658 19.4203 27.5658 19.9899 28.1353L24.2087 32.3541L36.0108 20.552C36.5803 19.9825 37.5037 19.9825 38.0732 20.552Z" fill="url(#paint0_radial_4180_5998)"/>
<path d="M28.0003 4.6665C40.887 4.6665 51.3337 15.1132 51.3337 27.9998C51.3337 40.8865 40.887 51.3332 28.0003 51.3332C15.1137 51.3332 4.66699 40.8865 4.66699 27.9998C4.66699 15.1132 15.1137 4.6665 28.0003 4.6665ZM28.0003 7.58317C16.7245 7.58317 7.58366 16.724 7.58366 27.9998C7.58366 39.2757 16.7245 48.4165 28.0003 48.4165C39.2761 48.4165 48.417 39.2757 48.417 27.9998C48.417 16.724 39.2761 7.58317 28.0003 7.58317ZM38.0732 20.552C38.6427 21.1215 38.6427 22.0449 38.0732 22.6144L25.2399 35.4477C24.6703 36.0172 23.747 36.0172 23.1775 35.4477L17.9275 30.1977C17.3579 29.6282 17.3579 28.7048 17.9275 28.1353C18.497 27.5658 19.4203 27.5658 19.9899 28.1353L24.2087 32.3541L36.0108 20.552C36.5803 19.9825 37.5037 19.9825 38.0732 20.552Z" fill="url(#paint1_radial_4180_5998)"/>
<path d="M28.0003 4.6665C40.887 4.6665 51.3337 15.1132 51.3337 27.9998C51.3337 40.8865 40.887 51.3332 28.0003 51.3332C15.1137 51.3332 4.66699 40.8865 4.66699 27.9998C4.66699 15.1132 15.1137 4.6665 28.0003 4.6665ZM28.0003 7.58317C16.7245 7.58317 7.58366 16.724 7.58366 27.9998C7.58366 39.2757 16.7245 48.4165 28.0003 48.4165C39.2761 48.4165 48.417 39.2757 48.417 27.9998C48.417 16.724 39.2761 7.58317 28.0003 7.58317ZM38.0732 20.552C38.6427 21.1215 38.6427 22.0449 38.0732 22.6144L25.2399 35.4477C24.6703 36.0172 23.747 36.0172 23.1775 35.4477L17.9275 30.1977C17.3579 29.6282 17.3579 28.7048 17.9275 28.1353C18.497 27.5658 19.4203 27.5658 19.9899 28.1353L24.2087 32.3541L36.0108 20.552C36.5803 19.9825 37.5037 19.9825 38.0732 20.552Z" fill="url(#paint2_radial_4180_5998)"/>
<defs>
<radialGradient id="paint0_radial_4180_5998" cx="0" cy="0" r="1" gradientUnits="userSpaceOnUse" gradientTransform="translate(42.2405 47.7302) rotate(-160.273) scale(36.0886 32.3317)">
<stop stop-color="#44DCFF" stop-opacity="0.71"/>
<stop offset="0.848709" stop-color="#78C7D9" stop-opacity="0"/>
</radialGradient>
<radialGradient id="paint1_radial_4180_5998" cx="0" cy="0" r="1" gradientUnits="userSpaceOnUse" gradientTransform="translate(49.6092 4.66651) rotate(114.846) scale(51.4269 59.4333)">
<stop stop-color="#C51BFF"/>
<stop offset="1" stop-color="#033959" stop-opacity="0"/>
</radialGradient>
<radialGradient id="paint2_radial_4180_5998" cx="0" cy="0" r="1" gradientUnits="userSpaceOnUse" gradientTransform="translate(3.6451 12.5903) rotate(57.845) scale(45.7623 62.6683)">
<stop stop-color="#14BDFF"/>
<stop offset="0.743635" stop-color="#033959" stop-opacity="0"/>
</radialGradient>
</defs>
</svg>
