<svg width="9" height="9" fill="none" xmlns="http://www.w3.org/2000/svg"><g clip-path="url(#a)" fill="#fff"><path d="M3.02.028a.712.712 0 0 0-.515.593c-.017.117-.015.137.018.198a.24.24 0 0 0 .227.134C2.885.95 2.973.86 2.994.7c.018-.12.083-.183.208-.199C3.25.496 4.23.492 5.376.496 7.658.5 7.494.494 7.57.6c.028.037.03.282.035 3.075.003 2.408 0 3.048-.018 3.102-.026.08-.116.148-.193.148-.067 0-.183.06-.21.107-.064.123-.05.24.038.324.044.042.07.052.163.058.278.017.552-.167.666-.449l.04-.102V3.718c0-3.006 0-3.15-.03-3.24a.776.776 0 0 0-.417-.43L7.547.009 5.332.005c-1.909-.003-2.229 0-2.311.023Z"/><path d="M1.377 1.614a.75.75 0 0 0-.434.42l-.04.102v3.146c0 3.006.001 3.15.031 3.24a.776.776 0 0 0 .417.43l.096.04 2.205.005c2.4.005 2.318.007 2.49-.093.17-.1.306-.292.341-.486.013-.065.016-1.13.014-3.19l-.005-3.092-.04-.102a.742.742 0 0 0-.45-.422c-.08-.028-.285-.03-2.312-.028-2.051 0-2.232.004-2.313.03Zm4.507.485c.026.014.065.05.083.076.031.047.033.133.033 3.107 0 2.894-.002 3.063-.032 3.108a.27.27 0 0 1-.077.078c-.046.03-.172.031-2.185.031-2.311 0-2.213.004-2.28-.095-.03-.044-.031-.191-.037-3.08-.003-2.404 0-3.05.018-3.102a.217.217 0 0 1 .082-.107l.06-.04h2.143c1.837 0 2.15.003 2.192.024Z"/></g><defs><clipPath id="a"><path fill="#fff" d="M0 0h9v9H0z"/></clipPath></defs></svg>