<svg width="20" height="20" fill="none" xmlns="http://www.w3.org/2000/svg"><path d="M16.231 4.277a14.817 14.817 0 0 0-3.66-1.136.055.055 0 0 0-.059.028c-.158.281-.333.648-.455.937a13.674 13.674 0 0 0-4.111 0 9.493 9.493 0 0 0-.463-.937.058.058 0 0 0-.059-.028c-1.284.221-2.513.61-3.66 1.136a.052.052 0 0 0-.024.021C1.41 7.784.77 11.185 1.084 14.543c.001.017.01.033.023.043a14.905 14.905 0 0 0 4.49 2.272.058.058 0 0 0 .063-.021c.346-.473.654-.971.919-1.496a.057.057 0 0 0-.032-.079 9.818 9.818 0 0 1-1.402-.67.058.058 0 0 1-.006-.095c.094-.07.189-.144.279-.219a.056.056 0 0 1 .058-.008c2.943 1.346 6.128 1.346 9.037 0a.056.056 0 0 1 .058.008c.09.074.185.148.28.219a.058.058 0 0 1-.005.096 9.213 9.213 0 0 1-1.404.668.057.057 0 0 0-.03.08c.27.524.578 1.022.918 1.495.014.02.04.029.063.022a14.856 14.856 0 0 0 4.497-2.273.058.058 0 0 0 .023-.04c.375-3.884-.628-7.256-2.658-10.246a.045.045 0 0 0-.024-.022Zm-9.213 8.221c-.886 0-1.616-.814-1.616-1.814S6.118 8.87 7.018 8.87c.907 0 1.63.821 1.616 1.814 0 1-.716 1.815-1.616 1.815Zm5.975 0c-.886 0-1.616-.814-1.616-1.814s.716-1.814 1.616-1.814c.907 0 1.63.821 1.616 1.814 0 1-.709 1.815-1.616 1.815Z" fill="#fff"/></svg>