<svg width="20" height="20" fill="none" xmlns="http://www.w3.org/2000/svg"><g clip-path="url(#a)" fill="#fff"><path d="M10 20a10 10 0 1 1 10-10 10.012 10.012 0 0 1-10 10ZM10 .667A9.333 9.333 0 1 0 19.333 10 9.344 9.344 0 0 0 10 .667Z"/><path d="m10 2.222-3.916 5.01-1.64 7.404L10 17.778l5.555-3.142L13.882 7.2 10 2.222ZM5.348 14.293l1.238-5.63 2.811 7.933-4.05-2.303Zm1.64-6.906L10 3.529l3.012 3.858L10 15.849 6.988 7.387Zm3.58 9.209 2.812-7.934 1.238 5.631-4.05 2.303Z"/></g><defs><clipPath id="a"><path fill="#fff" d="M0 0h20v20H0z"/></clipPath></defs></svg>