<svg width="56" height="56" viewBox="0 0 56 56" fill="none" xmlns="http://www.w3.org/2000/svg">
<path d="M28.0003 4.6665C40.8873 4.6665 51.3337 15.1152 51.3337 27.9998C51.3337 40.8845 40.8873 51.3332 28.0003 51.3332C15.1133 51.3332 4.66699 40.8845 4.66699 27.9998C4.66699 15.1152 15.1133 4.6665 28.0003 4.6665ZM28.0003 8.55617C17.2787 8.55617 8.55666 17.2782 8.55666 27.9998C8.55666 38.7215 17.2787 47.4435 28.0003 47.4435C38.722 47.4435 47.444 38.7215 47.444 27.9998C47.444 17.2782 38.722 8.55617 28.0003 8.55617ZM27.9972 33.8384C29.2841 33.8384 30.3274 34.8817 30.3274 36.1686C30.3274 37.4555 29.2841 38.4988 27.9972 38.4988C26.7103 38.4988 25.667 37.4555 25.667 36.1686C25.667 34.8817 26.7103 33.8384 27.9972 33.8384ZM27.9874 16.3332C28.8734 16.3325 29.6061 16.9902 29.7226 17.8443L29.7388 18.0818L29.7472 28.5855C29.748 29.552 28.9651 30.3361 27.9986 30.3369C27.1126 30.3376 26.3799 29.6798 26.2634 28.8257L26.2472 28.5883L26.2388 18.0846C26.238 17.1181 27.0209 16.3339 27.9874 16.3332Z" fill="#ED5151"/>
</svg>
