<svg width="20" height="20" fill="none" xmlns="http://www.w3.org/2000/svg"><g clip-path="url(#a)" fill="#fff"><path d="M10 20a10 10 0 1 1 10-10 10.012 10.012 0 0 1-10 10ZM10 .667A9.333 9.333 0 1 0 19.333 10 9.344 9.344 0 0 0 10 .667Z"/><path d="M10 17.488a.374.374 0 0 1-.283-.129l-4.864-5.614a.375.375 0 0 1 .418-.595l4.73 1.812 4.73-1.812a.375.375 0 0 1 .417.596l-4.864 5.614a.375.375 0 0 1-.283.128Zm-3.6-5.102L10 16.54l3.6-4.155-3.465 1.326a.372.372 0 0 1-.269 0l-3.465-1.326Z"/><path d="M9.998 12.239a.37.37 0 0 1-.135-.025l-4.166-1.597a.375.375 0 0 1-.192-.535l4.166-7.38a.39.39 0 0 1 .653 0l4.167 7.38a.374.374 0 0 1-.192.535l-4.167 1.596a.367.367 0 0 1-.134.026Zm-3.626-2.167 3.626 1.39 3.626-1.39L9.998 3.65l-3.626 6.423Z"/></g><defs><clipPath id="a"><path fill="#fff" d="M0 0h20v20H0z"/></clipPath></defs></svg>