<svg width="20" height="20" fill="none" xmlns="http://www.w3.org/2000/svg"><path d="M11.348.027c-.266.035-.883.207-1.176.32-1.504.6-2.485 1.801-2.875 3.524-.067.308-.082.542-.106 1.607l-.023 1.247-1.094.02c-.922.015-1.113.03-1.215.085-.18.098-.433.394-.48.562-.027.097-.043.776-.043 1.89v1.736l.101.202c.055.113.165.258.243.32.254.207.422.234 1.52.234h.987v3.723c0 4.11-.015 3.875.247 4.144.07.074.195.168.28.215.153.085.184.085 2.032.085 1.856 0 1.875 0 2.035-.085.188-.098.395-.324.469-.503.047-.11.055-.784.055-3.852v-3.723l1.28-.012c1.22-.012 1.286-.015 1.434-.094.2-.109.356-.265.465-.463.079-.152.082-.203.094-1.833.008-1.142 0-1.739-.031-1.879a.971.971 0 0 0-.457-.624l-.188-.109-1.289-.02-1.289-.019v-.74c.004-.41.016-.808.031-.89.055-.272.086-.276 1.415-.3 1.003-.02 1.195-.03 1.328-.09a1.13 1.13 0 0 0 .5-.475c.086-.152.086-.187.086-1.852 0-1.676 0-1.7-.086-1.856a1.097 1.097 0 0 0-.454-.46c-.12-.054-.335-.062-1.91-.058-.972.004-1.82.015-1.886.023Zm3.175 2.34-.011 1.24-1.055.023c-.832.015-1.098.035-1.258.085-.43.14-.797.496-.926.901-.105.32-.148.936-.132 1.906.011.96.027 1.037.218 1.209.184.168.317.18 1.72.183h1.335v2.69h-1.39c-1.333 0-1.399.004-1.536.082a.794.794 0 0 0-.238.219l-.098.144-.011 3.871-.008 3.871H8.359l-.007-3.87-.012-3.872-.098-.144a.793.793 0 0 0-.238-.219c-.137-.078-.207-.082-1.32-.082H5.508v-2.69h1.125c1.172-.004 1.32-.023 1.5-.183.203-.183.203-.195.23-1.864.024-1.516.028-1.57.125-1.93.164-.608.352-.997.68-1.434.488-.643 1.262-1.1 2.145-1.271.449-.086.46-.09 1.902-.094l1.316-.007-.008 1.235Z" fill="#fff"/></svg>