<svg width="20" height="20" fill="none" xmlns="http://www.w3.org/2000/svg"><g clip-path="url(#a)" fill="#fff"><path d="M10 20a10 10 0 1 1 10-10 10.012 10.012 0 0 1-10 10ZM10 .667A9.333 9.333 0 1 0 19.333 10 9.344 9.344 0 0 0 10 .667Z"/><g clip-path="url(#b)" fill-rule="evenodd" clip-rule="evenodd"><path d="M3.333 13.198c.182.086.421.218.592.319.062.038.133.07.201.109.037.02.06.03.094.05.017.01.032.02.049.028l.05.025 2.19 1.2c.031.015.06.032.094.05l1.987 1.09c.023.013.031.016.051.029l.95.518c.042.02.06.046.108.048v-6.603l-.302-.155c-.028-.012-.045-.022-.074-.037l-.236-.122c-.335-.157-.648-.35-.986-.506-.034-.015-.046-.025-.083-.04l-.301-.155c-.074-.04-.41-.22-.469-.232v1.042l1.234.635.088.046c.034.015.051.032.094.04v4.47c-.216-.129-.447-.245-.668-.364l-.538-.296c-.219-.131-.455-.24-.673-.37-.026-.014-.04-.02-.066-.035l-.475-.26a1.415 1.415 0 0 1-.136-.076c-.173-.104-.361-.195-.537-.296-.049-.028-.088-.046-.137-.073-.261-.157-.543-.299-.81-.443l-.063-.038-.207-.114V7.316a2.513 2.513 0 0 0-.125-.066 2.973 2.973 0 0 1-.125-.066l-.64-.324c-.048-.022-.085-.048-.13-.068v6.406ZM10.313 10.05v2.538l.378-.19c.173-.08.332-.18.506-.26.031-.015.042-.02.065-.035.023-.013.046-.02.068-.03v-1.496a.19.19 0 0 0 .071-.028c.026-.015.043-.02.069-.033.133-.068.264-.149.4-.21.185-.08.362-.182.538-.275l.13-.069.268-.134.065-.035c.117-.053.225-.124.344-.18l.131-.068c.023-.013.046-.02.068-.03l.873-.451c.185-.086.355-.19.537-.276l.27-.141c.091-.049.18-.092.27-.142.049-.025.089-.043.131-.068l.142-.071v4.329c-.04.007-.05.02-.085.037l-.25.137-.077.046c-.034.017-.057.033-.085.048-.031.015-.049.028-.08.043l-.253.134c-.227.116-.44.248-.668.364l-.665.367c-.031.018-.048.025-.08.043-.298.18-.617.329-.918.504-.054.032-.11.06-.165.09l-.833.456a1.243 1.243 0 0 0-.08.043c-.247.144-.505.268-.753.412l-.338.185v1.063c.057-.013.148-.074.199-.101.068-.038.133-.069.202-.11.19-.113.398-.207.588-.32l.1-.056.503-.276.094-.05 2.678-1.468.1-.056 1.787-.979a.998.998 0 0 1 .103-.053V6.802c-.051.01-.06.025-.1.046a3.11 3.11 0 0 0-.096.048l-.595.306c-.201.096-.389.215-.594.306l-1.589.815c-.07.035-.128.068-.196.103l-.293.152a10.84 10.84 0 0 0-.7.36c-.033.02-.062.027-.096.048l-.645.334c-.029.012-.023.012-.051.027l-.202.099c-.12.056-.225.124-.344.18-.029.012-.029.017-.051.027l-.202.1c-.134.057-.486.277-.594.298ZM3.729 6.367c.04.007.062.028.099.045.134.064.253.14.39.2l1.08.557c.514.278 1.049.526 1.566.804l.097.049c.037.017.062.032.097.048l.588.303.043.023c.275.15.565.276.838.43l.876.448.094.05c.102.056.469.254.506.254.054 0 .367-.178.446-.22l.154-.082c.05-.027.096-.045.148-.073l.147-.076.299-.157c.051-.028.097-.048.145-.076l.452-.227c.028-.013.048-.026.074-.038.025-.015.043-.023.074-.038l.301-.155c.048-.025.102-.063.16-.075-.01-.03-.015-.028-.043-.043l-.964-.494c-.384.18-.748.39-1.129.575a3.725 3.725 0 0 1-.262.14l-.58-.3c-.201-.091-.386-.21-.588-.303-.045-.023-.09-.049-.13-.069L7.53 7.265l-.066-.035c-.025-.016-.043-.02-.068-.033l-1.507-.774c-.028-.016-.031-.023-.07-.03.03-.041.067-.044.118-.072.043-.025.083-.038.128-.06l1.311-.63c.028-.016.028-.018.057-.03.028-.013.043-.018.068-.034.046-.025.091-.043.137-.063l1.634-.784c.029-.013.037-.02.066-.036l.665-.316c.037 0 .54.26.657.314.028.013.048.02.076.035.034.018.043.026.083.04l1.808.869c.16.088.642.313.813.39.193.085.378.189.571.275l1.075.519c.037.017.048.022.082.04.128.068.131.01.339-.09l.384-.196c.068-.033.327-.18.386-.192-.011-.033-.045-.046-.08-.063l-.389-.19c-.196-.089-.392-.197-.588-.28l-.39-.19c-.133-.061-.267-.117-.392-.188l-1.965-.944c-.04-.017-.062-.027-.096-.048l-.79-.38c-.038-.017-.06-.03-.097-.047-.02-.01-.029-.013-.046-.02l-1.037-.501c-.066-.036-.37-.188-.407-.188-.031 0-.25.117-.298.137l-2.25 1.083a1.145 1.145 0 0 0-.099.045l-1.575.757c-.037.018-.054.03-.096.048l-.143.068c-.028.013-.028.018-.05.028-.032.018-.066.025-.1.046l-.302.144c-.04.018-.06.033-.096.048l-.458.223c-.017.007-.017.005-.031.012-.066.033-.134.056-.196.094-.037.02-.06.028-.1.045l-.44.218c-.035.018-.026.002-.037.038Z"/></g></g><defs><clipPath id="a"><path fill="#fff" d="M0 0h20v20H0z"/></clipPath><clipPath id="b"><path fill="#fff" transform="translate(3.333 3.333)" d="M0 0h13.333v13.333H0z"/></clipPath></defs></svg>