<svg width="108" height="106" fill="none" xmlns="http://www.w3.org/2000/svg"><g clip-path="url(#a)" fill="#fff" fill-opacity=".2"><path d="M27.021 27.162C12.361 34.698.38 40.95.422 41.074c.021.104 4.957 2.754 10.948 5.839l10.884 5.63.063-3.188.064-3.208 2.257-1.118c7.32-3.603 14.343-5.694 22.19-6.646 3.312-.394 10.4-.456 13.606-.104 8.058.85 15.166 2.94 22.739 6.646l2.468 1.222v3.209c0 1.76.02 3.209.063 3.209.021 0 2.13-1.056 4.683-2.36l4.64-2.36.064 11.738.042 11.76-3.27 6.893-3.27 6.874 3.102 3.209c1.73 1.76 3.902 4.016 4.872 4.99l1.73 1.8 1.751-1.8c.949-.974 3.122-3.23 4.83-4.99L108 85.13l-3.269-6.894-3.27-6.894v-26.81l3.249-1.74 3.269-1.718-.569-.331c-1.646-.973-53.199-27.308-53.452-27.287-.148 0-12.277 6.17-26.937 13.706Z"/><path d="M50.836 44.304c-6.687.31-13.605 1.946-20.144 4.74l-2.004.87v25.217h50.625V49.914l-2.194-.952c-8.416-3.602-16.79-5.093-26.283-4.658Z"/></g><defs><clipPath id="a"><path fill="#fff" d="M0 0h108v106H0z"/></clipPath></defs></svg>