<svg width="220" height="110" viewBox="0 0 1444 720" fill="none" xmlns="http://www.w3.org/2000/svg"><path d="M843.399 295v-61.7L803.55 295h-5.859l-39.901-61.964V295h-6.598v-72.52h7.073l42.54 65.711 42.066-65.711h7.02V295h-6.492zm32.279 0v-72.52h60.433v6.175h-53.255v24.965h50.563v6.123h-50.563v29.082h54.047V295h-61.225zm112.294-66.503V295h-6.545v-66.503h-32.988v-6.017h72.521v6.017h-32.988zM1092.03 295l-9.97-19.106h-49.25L1022.84 295h-7.23l37.94-72.52h7.76l37.95 72.52h-7.23zm-34.57-66.133l-21.43 40.957h42.81l-21.38-40.957zm178.51 29.82c0 4.645-.49 8.779-1.48 12.404-.95 3.589-2.3 6.72-4.06 9.394a26.444 26.444 0 01-6.44 6.809c-2.5 1.865-5.3 3.36-8.39 4.486-3.06 1.126-6.41 1.953-10.03 2.481-3.59.493-7.37.739-11.35.739h-37.42v-72.52h37.32c5.94 0 11.47.581 16.57 1.742s9.52 3.149 13.25 5.964c3.76 2.78 6.7 6.492 8.81 11.137 2.15 4.644 3.22 10.433 3.22 17.364zm-6.81 0c0-3.941-.39-7.424-1.16-10.45-.77-3.026-1.88-5.648-3.32-7.864-1.45-2.252-3.21-4.135-5.28-5.648-2.08-1.513-4.42-2.727-7.02-3.642-2.61-.95-5.44-1.618-8.5-2.005-3.06-.387-6.32-.581-9.76-.581h-30.72v60.433h30.72c5.17 0 9.9-.457 14.19-1.372 4.3-.95 7.97-2.569 11.03-4.856 3.1-2.322 5.51-5.419 7.24-9.289 1.72-3.906 2.58-8.814 2.58-14.726zM1322.88 295l-9.98-19.106h-49.24L1253.68 295h-7.23l37.95-72.52h7.76l37.95 72.52h-7.23zm-34.57-66.133l-21.43 40.957h42.8l-21.37-40.957zm143.38 29.926c0 6.509-1.18 12.139-3.54 16.89-2.36 4.715-5.59 8.62-9.71 11.717-4.12 3.061-8.97 5.33-14.57 6.808-5.59 1.478-11.63 2.217-18.1 2.217-6.51 0-12.58-.739-18.21-2.217-5.63-1.478-10.52-3.747-14.67-6.808-4.16-3.097-7.41-7.002-9.77-11.717-2.36-4.751-3.53-10.381-3.53-16.89 0-4.328.54-8.251 1.63-11.77 1.09-3.554 2.62-6.721 4.59-9.5a31.123 31.123 0 017.13-7.284c2.81-2.041 5.93-3.73 9.34-5.067 3.45-1.372 7.14-2.375 11.09-3.008 3.94-.669 8.07-1.003 12.4-1.003 6.47 0 12.51.739 18.1 2.216 5.6 1.478 10.45 3.765 14.57 6.862 4.12 3.061 7.35 6.967 9.71 11.717 2.36 4.715 3.54 10.327 3.54 16.837zm-6.81 0c0-5.137-.85-9.676-2.53-13.617-1.66-3.941-4.12-7.249-7.39-9.923-3.28-2.709-7.36-4.75-12.25-6.123-4.85-1.407-10.5-2.111-16.94-2.111-6.44 0-12.12.704-17.05 2.111-4.89 1.408-8.99 3.466-12.3 6.176-3.3 2.674-5.8 5.999-7.49 9.975-1.69 3.941-2.54 8.445-2.54 13.512 0 5.137.85 9.676 2.54 13.617a25.976 25.976 0 007.49 9.976c3.31 2.674 7.41 4.715 12.3 6.122 4.93 1.372 10.61 2.058 17.05 2.058 6.44 0 12.09-.686 16.94-2.058 4.89-1.407 8.97-3.448 12.25-6.122 3.27-2.71 5.73-6.035 7.39-9.976 1.68-3.941 2.53-8.48 2.53-13.617zm-593.814 57.458c11.041 0 21.29.957 30.747 2.87 9.511 1.858 18.229 4.263 26.155 7.215v27.549c-3.116-1.749-6.641-3.443-10.577-5.083-3.881-1.64-8.117-3.089-12.709-4.346-4.591-1.257-9.511-2.268-14.758-3.033-5.248-.766-10.768-1.148-16.562-1.148-7.216 0-13.502.519-18.858 1.557-5.357 1.039-9.949 2.433-13.775 4.182-3.826 1.749-6.969 3.799-9.429 6.149-2.46 2.296-4.4 4.756-5.822 7.38-1.421 2.623-2.405 5.302-2.951 8.035-.547 2.733-.82 5.384-.82 7.953 0 2.241.218 4.674.656 7.297.492 2.624 1.366 5.248 2.624 7.872 1.311 2.623 3.115 5.138 5.411 7.543 2.296 2.405 5.275 4.537 8.937 6.395 3.717 1.859 8.172 3.362 13.365 4.51 5.192 1.093 11.369 1.639 18.53 1.639 3.607 0 6.75-.109 9.429-.327 2.678-.219 5.111-.52 7.297-.902a58.889 58.889 0 006.231-1.394 597.504 597.504 0 006.068-1.722v-13.611h-34.109v-24.679h64.528v57.558c-4.045 1.366-8.582 2.624-13.611 3.772a211.565 211.565 0 01-15.496 2.787 223.445 223.445 0 01-15.989 1.886c-5.356.437-10.413.656-15.168.656-7.379 0-14.458-.492-21.236-1.476-6.778-.984-13.119-2.487-19.022-4.509-5.849-2.077-11.206-4.701-16.07-7.872-4.811-3.17-8.937-6.942-12.381-11.314-3.389-4.373-6.04-9.375-7.953-15.005-1.859-5.685-2.788-12.053-2.788-19.104 0-6.997.984-13.337 2.952-19.022 1.967-5.685 4.701-10.714 8.199-15.086 3.553-4.373 7.789-8.145 12.709-11.315 4.974-3.171 10.412-5.767 16.316-7.79 5.958-2.077 12.299-3.607 19.022-4.591 6.778-.984 13.747-1.476 20.908-1.476zm225.394 77.564c0 5.63-1.39 10.932-4.18 15.907-2.79 4.974-6.97 9.319-12.55 13.036-5.57 3.717-12.54 6.669-20.9 8.855-8.31 2.132-18.04 3.198-29.192 3.198-11.151 0-20.936-1.066-29.353-3.198-8.363-2.186-15.333-5.138-20.908-8.855-5.576-3.717-9.757-8.062-12.545-13.036-2.788-4.975-4.182-10.277-4.182-15.907v-74.694h30.337v63.789c0 3.772.465 7.352 1.394 10.741.984 3.335 2.788 6.259 5.412 8.773 2.678 2.515 6.395 4.51 11.151 5.986 4.81 1.476 11.041 2.213 18.694 2.213 7.598 0 13.772-.737 18.532-2.213 4.75-1.476 8.44-3.471 11.07-5.986 2.68-2.514 4.48-5.438 5.41-8.773.93-3.389 1.39-6.969 1.39-10.741v-63.789h30.42v74.694zm34.44 37.962V319.121h30.42v112.656h-30.42zm65.75 0V319.121h30.42v87.977h82.24v24.679h-112.66zm275.09-56.41c0 7.215-.8 13.638-2.38 19.268-1.59 5.576-3.83 10.44-6.72 14.595-2.85 4.154-6.29 7.68-10.34 10.577-3.99 2.897-8.44 5.22-13.36 6.969-4.92 1.749-10.22 3.034-15.91 3.853-5.68.766-11.61 1.148-17.79 1.148h-71.5V319.121h71.34c6.17 0 12.1.41 17.79 1.23 5.68.765 10.99 2.022 15.91 3.771 4.97 1.749 9.48 4.073 13.52 6.97 4.05 2.842 7.49 6.368 10.34 10.577 2.89 4.154 5.13 9.019 6.72 14.594 1.58 5.575 2.38 11.943 2.38 19.104zm-30.67 0c0-5.411-.71-10.112-2.13-14.102-1.37-3.991-3.61-7.27-6.72-9.839-3.06-2.624-7.08-4.565-12.06-5.822-4.97-1.312-11.04-1.968-18.2-1.968h-37.8v63.626h37.8c7.16 0 13.23-.629 18.2-1.886 4.98-1.312 9-3.28 12.06-5.903 3.11-2.679 5.35-6.013 6.72-10.003 1.42-3.991 2.13-8.691 2.13-14.103z" fill="#fff"/><g filter="url(#filter0_d_85_16)"><path d="M95.8 377.449a65.69 65.69 0 010-65.685l119.41-206.846a65.677 65.677 0 0156.879-32.843h238.822a65.677 65.677 0 0156.879 32.843l119.411 206.846a65.692 65.692 0 010 65.685L567.79 584.294a65.678 65.678 0 01-56.879 32.843H272.089a65.678 65.678 0 01-56.879-32.843L95.8 377.449z" fill="#82D9FF"/><path d="M95.8 377.449a65.69 65.69 0 010-65.685l119.41-206.846a65.677 65.677 0 0156.879-32.843h238.822a65.677 65.677 0 0156.879 32.843l119.411 206.846a65.692 65.692 0 010 65.685L567.79 584.294a65.678 65.678 0 01-56.879 32.843H272.089a65.678 65.678 0 01-56.879-32.843L95.8 377.449z" fill="url(#paint0_radial_85_16)"/><path d="M95.8 377.449a65.69 65.69 0 010-65.685l119.41-206.846a65.677 65.677 0 0156.879-32.843h238.822a65.677 65.677 0 0156.879 32.843l119.411 206.846a65.692 65.692 0 010 65.685L567.79 584.294a65.678 65.678 0 01-56.879 32.843H272.089a65.678 65.678 0 01-56.879-32.843L95.8 377.449z" fill="url(#paint1_radial_85_16)"/><path d="M95.8 377.449a65.69 65.69 0 010-65.685l119.41-206.846a65.677 65.677 0 0156.879-32.843h238.822a65.677 65.677 0 0156.879 32.843l119.411 206.846a65.692 65.692 0 010 65.685L567.79 584.294a65.678 65.678 0 01-56.879 32.843H272.089a65.678 65.678 0 01-56.879-32.843L95.8 377.449z" fill="url(#paint2_radial_85_16)"/><path d="M96.216 312.004l119.411-206.845a65.195 65.195 0 0156.462-32.602h238.822a65.195 65.195 0 0156.462 32.602l119.411 206.845a65.212 65.212 0 010 65.204L567.373 584.054a65.195 65.195 0 01-56.462 32.601H272.089a65.195 65.195 0 01-56.462-32.601L96.217 377.208a65.21 65.21 0 010-65.204z" stroke="url(#paint3_linear_85_16)" stroke-opacity=".31" stroke-width=".963"/></g><path d="M449.825 399.088c18.028-.004 29.294-19.52 20.281-35.133l-57.87-100.254c-9.014-15.616-31.552-15.618-40.569-.005l-57.914 100.28c-9.02 15.617 2.254 35.141 20.288 35.137l115.784-.025z" fill="#BCB9B9"/><path d="M449.825 399.088c18.028-.004 29.294-19.52 20.281-35.133l-57.87-100.254c-9.014-15.616-31.552-15.618-40.569-.005l-57.914 100.28c-9.02 15.617 2.254 35.141 20.288 35.137l115.784-.025z" fill="url(#paint4_linear_85_16)"/><path d="M167.107 369.397a49.796 49.796 0 010-49.816l90.613-156.874a49.844 49.844 0 0143.162-24.908h89.785c-21.72.272-43.315 11.422-55.727 32.841L212.235 382.375c-12.587 21.72-11.042 46.162 0 65.15l-45.128-78.128z" fill="#BCB9B9"/><path d="M167.107 369.397a49.796 49.796 0 010-49.816l90.613-156.874a49.844 49.844 0 0143.162-24.908h89.785c-21.72.272-43.315 11.422-55.727 32.841L212.235 382.375c-12.587 21.72-11.042 46.162 0 65.15l-45.128-78.128z" fill="url(#paint5_linear_85_16)"/><path d="M390.667 137.799c.2-.003.4-.004.6-.005.001 0 .002.001.002.003a.002.002 0 01-.002.002h-.6z" fill="#BCB9B9"/><path d="M390.667 137.799c.2-.003.4-.004.6-.005.001 0 .002.001.002.003a.002.002 0 01-.002.002h-.6z" fill="url(#paint6_linear_85_16)"/><path d="M392.343 137.799l-.413-.004.367.004h.046z" fill="#BCB9B9"/><path d="M392.343 137.799l-.413-.004.367.004h.046z" fill="url(#paint7_linear_85_16)"/><path d="M572.039 445.245c.002.001.004.001.005-.001l43.839-75.847a49.796 49.796 0 000-49.816L525.27 162.707a49.844 49.844 0 00-43.162-24.908h-89.811c21.721.272 43.341 11.422 55.754 32.841l122.705 211.735c12.363 21.334 11.768 44.077 1.282 62.866-.001.001 0 .003.001.004z" fill="#BCB9B9"/><path d="M572.039 445.245c.002.001.004.001.005-.001l43.839-75.847a49.796 49.796 0 000-49.816L525.27 162.707a49.844 49.844 0 00-43.162-24.908h-89.811c21.721.272 43.341 11.422 55.754 32.841l122.705 211.735c12.363 21.334 11.768 44.077 1.282 62.866-.001.001 0 .003.001.004z" fill="url(#paint8_linear_85_16)"/><path d="M571.955 445.398l-.001-.003-.003.001-.226.399-.357.618c-11.03 18.848-32.14 33.552-57.168 33.552H268.79c-25.048 0-45.472-13.464-56.496-32.336l45.426 78.643a49.844 49.844 0 0043.162 24.908h181.226a49.842 49.842 0 0043.162-24.909l46.098-79.858.169-.29.071-.122.117-.206.23-.397z" fill="#BCB9B9"/><path d="M571.955 445.398l-.001-.003-.003.001-.226.399-.357.618c-11.03 18.848-32.14 33.552-57.168 33.552H268.79c-25.048 0-45.472-13.464-56.496-32.336l45.426 78.643a49.844 49.844 0 0043.162 24.908h181.226a49.842 49.842 0 0043.162-24.909l46.098-79.858.169-.29.071-.122.117-.206.23-.397z" fill="url(#paint9_linear_85_16)"/><path d="M530.371 105.543c9.314 5.377 14.877 16.93 16.523 33.937 1.64 16.954-.664 38.916-6.645 64.429-11.958 51.003-38.516 115.789-76.874 182.228-38.359 66.439-81.187 121.832-119.377 157.689-19.104 17.937-36.972 30.913-52.475 37.969-15.551 7.078-28.338 8.037-37.652 2.659-9.313-5.377-14.876-16.93-16.522-33.937-1.641-16.953.663-38.916 6.644-64.429 11.958-51.002 38.516-115.789 76.875-182.228 38.358-66.438 81.186-121.831 119.377-157.688 19.103-17.937 36.972-30.914 52.474-37.969 15.552-7.078 28.338-8.037 37.652-2.66z" stroke="url(#paint10_linear_85_16)" stroke-width="3.524"/><path d="M114.727 344.49c0-9.792 7.146-19.532 21.096-28.714 13.88-9.136 34.08-17.431 59.199-24.425 50.213-13.979 119.683-22.649 196.488-22.649 76.805 0 146.275 8.67 196.488 22.649 25.119 6.994 45.319 15.289 59.199 24.425 13.95 9.182 21.096 18.922 21.096 28.714 0 9.791-7.146 19.531-21.096 28.714-13.88 9.135-34.08 17.431-59.199 24.424-50.213 13.98-119.683 22.649-196.488 22.649-76.805 0-146.275-8.669-196.488-22.649-25.119-6.993-45.319-15.289-59.199-24.424-13.95-9.183-21.096-18.923-21.096-28.714z" stroke="url(#paint11_linear_85_16)" stroke-width="3.524"/><path d="M253.904 104.862c-9.133 5.273-14.543 16.72-16.043 33.656-1.495 16.875.942 38.771 7.039 64.229 12.187 50.895 38.894 115.627 77.267 182.091 38.373 66.464 81.079 121.959 119.061 157.96 19 18.009 36.743 31.068 52.105 38.211 15.417 7.168 28.036 8.207 37.169 2.934 9.134-5.273 14.543-16.721 16.044-33.656 1.495-16.876-.943-38.771-7.039-64.23-12.187-50.894-38.894-115.626-77.267-182.09-38.374-66.464-81.079-121.96-119.062-157.961-19-18.009-36.742-31.068-52.105-38.211-15.416-7.168-28.035-8.207-37.169-2.933z" stroke="url(#paint12_linear_85_16)" stroke-width="3.524"/><circle cx="269.331" cy="411.911" r="8.23" transform="rotate(-90 269.331 411.911)" fill="#fff"/><circle cx="514.316" cy="411.274" r="8.23" transform="rotate(-90 514.316 411.274)" fill="#fff"/><circle cx="392.152" cy="201.102" r="8.23" transform="rotate(-90 392.152 201.102)" fill="#fff"/><defs><linearGradient id="paint3_linear_85_16" x1="170.827" y1="61.576" x2="533.329" y2="772.925" gradientUnits="userSpaceOnUse"><stop stop-color="#75D4F6"/><stop offset="1" stop-color="#8E52DF"/></linearGradient><linearGradient id="paint4_linear_85_16" x1="310.578" y1="325.55" x2="473.278" y2="325.55" gradientUnits="userSpaceOnUse"><stop stop-color="#193A79"/><stop offset="1" stop-color="#7545B9"/></linearGradient><linearGradient id="paint5_linear_85_16" x1="160.43" y1="344.487" x2="622.561" y2="344.487" gradientUnits="userSpaceOnUse"><stop stop-color="#193A79"/><stop offset="1" stop-color="#7545B9"/></linearGradient><linearGradient id="paint6_linear_85_16" x1="160.43" y1="344.487" x2="622.561" y2="344.487" gradientUnits="userSpaceOnUse"><stop stop-color="#193A79"/><stop offset="1" stop-color="#7545B9"/></linearGradient><linearGradient id="paint7_linear_85_16" x1="160.43" y1="344.487" x2="622.561" y2="344.487" gradientUnits="userSpaceOnUse"><stop stop-color="#193A79"/><stop offset="1" stop-color="#7545B9"/></linearGradient><linearGradient id="paint8_linear_85_16" x1="160.43" y1="344.487" x2="622.561" y2="344.487" gradientUnits="userSpaceOnUse"><stop stop-color="#193A79"/><stop offset="1" stop-color="#7545B9"/></linearGradient><linearGradient id="paint9_linear_85_16" x1="160.43" y1="344.487" x2="622.561" y2="344.487" gradientUnits="userSpaceOnUse"><stop stop-color="#193A79"/><stop offset="1" stop-color="#7545B9"/></linearGradient><linearGradient id="paint10_linear_85_16" x1="274.076" y1="266.623" x2="458.664" y2="381.193" gradientUnits="userSpaceOnUse"><stop stop-color="#fff"/><stop offset="1" stop-color="#fff" stop-opacity="0"/></linearGradient><linearGradient id="paint11_linear_85_16" x1="424.745" y1="500.538" x2="412.724" y2="320.094" gradientUnits="userSpaceOnUse"><stop stop-color="#fff"/><stop offset="1" stop-color="#fff" stop-opacity="0"/></linearGradient><linearGradient id="paint12_linear_85_16" x1="501.347" y1="278.016" x2="344.065" y2="384.763" gradientUnits="userSpaceOnUse"><stop stop-color="#fff"/><stop offset="1" stop-color="#fff" stop-opacity="0"/></linearGradient><radialGradient id="paint0_radial_85_16" cx="0" cy="0" r="1" gradientUnits="userSpaceOnUse" gradientTransform="rotate(111.834 264.177 308.698) scale(427.433 416.083)"><stop stop-color="#44DCFF" stop-opacity=".71"/><stop offset=".849" stop-color="#78C7D9" stop-opacity="0"/></radialGradient><radialGradient id="paint1_radial_85_16" cx="0" cy="0" r="1" gradientUnits="userSpaceOnUse" gradientTransform="rotate(22.511 -188.19 264.691) scale(659.228 706.697)"><stop stop-color="#C51BFF"/><stop offset="1" stop-color="#033959" stop-opacity="0"/></radialGradient><radialGradient id="paint2_radial_85_16" cx="0" cy="0" r="1" gradientUnits="userSpaceOnUse" gradientTransform="matrix(505.5935 -284.4689 369.48246 656.69015 190.408 629.078)"><stop stop-color="#14BDFF"/><stop offset=".744" stop-color="#033959" stop-opacity="0"/></radialGradient><filter id="filter0_d_85_16" x=".189" y=".583" width="782.622" height="718.684" filterUnits="userSpaceOnUse" color-interpolation-filters="sRGB"><feFlood flood-opacity="0" result="BackgroundImageFix"/><feColorMatrix in="SourceAlpha" values="0 0 0 0 0 0 0 0 0 0 0 0 0 0 0 0 0 0 127 0" result="hardAlpha"/><feOffset dy="15.32"/><feGaussianBlur stdDeviation="43.405"/><feComposite in2="hardAlpha" operator="out"/><feColorMatrix values="0 0 0 0 0.25098 0 0 0 0 0.533334 0 0 0 0 0.878431 0 0 0 0.57 0"/><feBlend in2="BackgroundImageFix" result="effect1_dropShadow_85_16"/><feBlend in="SourceGraphic" in2="effect1_dropShadow_85_16" result="shape"/></filter></defs></svg>