<svg width="20" height="20" fill="none" xmlns="http://www.w3.org/2000/svg"><path d="M6.833 17.38c0 .55-.412.778-.868.55L1.04 15.467a.895.895 0 0 1-.376-.353.936.936 0 0 1-.154-.493V2.565c0-.45.27-.653.88-.349l5.412 2.708c.078.078.02-.46.031 12.457Zm.678-11.336 5.656 9.158-5.656-2.813V6.044Zm11.98.19v11.147a.61.61 0 0 1-.15.428.516.516 0 0 1-.402.164.999.999 0 0 1-.497-.138l-4.671-2.327 5.72-9.273Zm-.032-1.268c0 .021-.906 1.5-2.717 4.435a3821.639 3821.639 0 0 1-3.183 5.156l-4.13-6.705 3.43-5.572c.187-.308.57-.361.827-.233l5.73 2.855c.028.014.043.035.043.064Z" fill="#962FED"/></svg>
