<svg width="20" height="20" fill="none" xmlns="http://www.w3.org/2000/svg"><g clip-path="url(#a)"><path d="M10 20a10 10 0 1 1 10-10 10.012 10.012 0 0 1-10 10ZM10 .667A9.333 9.333 0 1 0 19.333 10 9.344 9.344 0 0 0 10 .667Z" fill="#fff"/><path d="M13.348 5.012 11.03 8.457c-.16.234.148.518.37.32L13.68 6.79c.062-.05.148-.012.148.074v6.21c0 .087-.111.123-.16.062L6.763 4.864a1.14 1.14 0 0 0-.9-.42h-.247c-.641 0-1.172.531-1.172 1.186v8.74a1.185 1.185 0 0 0 2.195.618l2.319-3.445c.16-.234-.148-.518-.37-.32l-2.282 1.974c-.061.05-.148.013-.148-.073V6.925c0-.086.111-.124.16-.062l6.907 8.272c.222.271.555.42.9.42h.247c.653 0 1.183-.531 1.183-1.186V5.63c0-.655-.53-1.186-1.183-1.186-.42 0-.802.21-1.024.568Z" stroke="#fff" stroke-width=".6"/></g><defs><clipPath id="a"><path fill="#fff" d="M0 0h20v20H0z"/></clipPath></defs></svg>