<svg width="15" height="15" fill="none" xmlns="http://www.w3.org/2000/svg"><path d="M7.852.981a1.364 1.364 0 0 0-.598.37c-.065.076-.211.298-.322.498a33.167 33.167 0 0 1-1.606 2.557c-.31.44-.847 1.16-.864 1.16-.009 0-.041-.032-.07-.07-.13-.164-.132-.164-1.676-.164H1.298l-.097.064a.863.863 0 0 0-.158.15l-.062.082v7.7l.062.081a.865.865 0 0 0 .158.15l.1.067 1.45-.009 1.453-.009.094-.067a.544.544 0 0 0 .143-.179l.05-.114.223.188c.266.225.627.418.987.53l.26.079 1.589.012c1.766.008 1.907 0 2.358-.173.308-.12.703-.387.929-.63.202-.214 2.81-4.099 2.976-4.433.507-1.008.088-2.288-.92-2.812-.445-.232-.495-.238-2.088-.238-1.316 0-1.4-.002-1.4-.052 0-.027.131-.645.292-1.368.314-1.415.334-1.57.25-1.905a1.954 1.954 0 0 0-.335-.682c-.16-.202-.767-.654-.99-.739a1.417 1.417 0 0 0-.77-.044Zm.553.997c.487.325.648.536.648.837 0 .062-.164.856-.366 1.761-.396 1.784-.393 1.755-.247 1.94.144.184.074.178 2.019.193l1.772.015.167.082c.258.126.446.313.572.571.105.214.111.234.111.516 0 .257-.012.316-.076.457-.041.09-.674 1.06-1.403 2.153-.953 1.43-1.377 2.039-1.498 2.156-.21.208-.556.387-.837.434-.138.026-.66.032-1.708.026-1.492-.012-1.512-.012-1.69-.079a1.932 1.932 0 0 1-.634-.395 7.595 7.595 0 0 1-.416-.516l-.307-.407V6.888l.15-.14c.67-.628 1.777-2.207 2.955-4.223.337-.577.399-.647.56-.65.044 0 .146.047.228.103Zm-4.83 7.5v3.208H1.903V6.27h1.67v3.208Z" fill="#fff"/></svg>