<svg width="20" height="20" fill="none" xmlns="http://www.w3.org/2000/svg"><path d="M14.824 2.504c-.5.117-.765.652-.586 1.168.032.09.059.172.059.183a1.41 1.41 0 0 1-.223-.136c-.808-.543-1.906-.957-2.98-1.125-.543-.086-1.637-.086-2.176-.004-1.637.258-3.035.957-4.187 2.098a7.483 7.483 0 0 0-1.622 8.27 7.5 7.5 0 0 0 5.91 4.483 9.366 9.366 0 0 0 1.84.02c3.012-.375 5.47-2.441 6.333-5.324.234-.793.378-2.059.269-2.387a.973.973 0 0 0-.434-.496c-.273-.137-.703-.078-.925.133-.196.18-.254.367-.286.91-.054.867-.23 1.547-.605 2.3-.8 1.614-2.266 2.731-4.117 3.13-.473.105-1.715.105-2.188 0-1.851-.399-3.316-1.512-4.117-3.13A5.561 5.561 0 0 1 4.18 10c0-2.77 1.86-5.074 4.606-5.707.504-.117 1.582-.145 2.117-.055a5.816 5.816 0 0 1 1.938.668l.258.145-.114.047c-.293.12-.511.5-.476.816a.895.895 0 0 0 .414.637l.183.11 1.368.01c1.629.017 1.703.009 1.972-.265.153-.148.196-.226.239-.406l.05-.227-.476-1.433c-.41-1.238-.496-1.453-.61-1.578a.869.869 0 0 0-.824-.258Z" fill="#fff"/></svg>