<svg width="20" height="21" viewBox="0 0 20 21" fill="none" xmlns="http://www.w3.org/2000/svg">
<path d="M10.0016 -0.000976562C15.5253 -0.000976562 20.0031 4.47687 20.0031 10.0006C20.0031 15.5243 15.5253 20.0021 10.0016 20.0021C4.47785 20.0021 0 15.5243 0 10.0006C0 4.47687 4.47785 -0.000976562 10.0016 -0.000976562ZM10.0016 1.49902C5.30627 1.49902 1.5 5.3053 1.5 10.0006C1.5 14.6959 5.30627 18.5021 10.0016 18.5021C14.6968 18.5021 18.5031 14.6959 18.5031 10.0006C18.5031 5.3053 14.6968 1.49902 10.0016 1.49902ZM9.99811 3.99902C13.3108 3.99902 15.9962 6.68447 15.9962 9.99714C15.9962 13.3098 13.3108 15.9953 9.99811 15.9953C6.68545 15.9953 4 13.3098 4 9.99714C4 6.68447 6.68545 3.99902 9.99811 3.99902Z" fill="#3042FF"/>
<path d="M10.0016 -0.000976562C15.5253 -0.000976562 20.0031 4.47687 20.0031 10.0006C20.0031 15.5243 15.5253 20.0021 10.0016 20.0021C4.47785 20.0021 0 15.5243 0 10.0006C0 4.47687 4.47785 -0.000976562 10.0016 -0.000976562ZM10.0016 1.49902C5.30627 1.49902 1.5 5.3053 1.5 10.0006C1.5 14.6959 5.30627 18.5021 10.0016 18.5021C14.6968 18.5021 18.5031 14.6959 18.5031 10.0006C18.5031 5.3053 14.6968 1.49902 10.0016 1.49902ZM9.99811 3.99902C13.3108 3.99902 15.9962 6.68447 15.9962 9.99714C15.9962 13.3098 13.3108 15.9953 9.99811 15.9953C6.68545 15.9953 4 13.3098 4 9.99714C4 6.68447 6.68545 3.99902 9.99811 3.99902Z" fill="url(#paint0_radial_4368_437)"/>
<defs>
<radialGradient id="paint0_radial_4368_437" cx="0" cy="0" r="1" gradientUnits="userSpaceOnUse" gradientTransform="translate(-1.66693 25.5585) rotate(-60.5241) scale(29.3598 26.3033)">
<stop stop-color="#44DCFF" stop-opacity="0.71"/>
<stop offset="0.848709" stop-color="#78C7D9" stop-opacity="0"/>
</radialGradient>
</defs>
</svg>
