<svg width="20" height="20" fill="none" xmlns="http://www.w3.org/2000/svg"><g clip-path="url(#a)"><path d="M10 20a10 10 0 1 1 10-10 10.012 10.012 0 0 1-10 10ZM10 .667A9.333 9.333 0 1 0 19.333 10 9.344 9.344 0 0 0 10 .667Z" fill="#fff"/><path d="M5.5 12.34a.478.478 0 0 1 .308-.109H16.45c.195 0 .292.2.155.317l-2.102 1.788a.478.478 0 0 1-.309.108H3.552c-.195 0-.292-.2-.154-.316L5.5 12.34ZM5.5 5.664a.492.492 0 0 1 .308-.108H16.45c.195 0 .292.2.155.316L14.502 7.66a.478.478 0 0 1-.309.109H3.552c-.195 0-.292-.2-.154-.317L5.5 5.664ZM14.502 8.98a.478.478 0 0 0-.309-.108H3.552c-.195 0-.292.2-.154.317L5.5 10.977c.08.068.19.108.308.108H16.45c.195 0 .292-.2.155-.317L14.502 8.98Z" stroke="#fff" stroke-width=".6"/></g><defs><clipPath id="a"><path fill="#fff" d="M0 0h20v20H0z"/></clipPath></defs></svg>