<svg width="140" height="20" viewBox="0 0 140 20" fill="none" xmlns="http://www.w3.org/2000/svg">
<path d="M10 16.6704L5.2196 19.3731C4.52803 19.7641 3.63604 19.1698 3.78975 18.2867L4.6767 13.1907C4.7325 12.8701 4.62881 12.5423 4.39874 12.3122L0.804724 8.71694C0.195279 8.10728 0.558059 7.07033 1.35107 6.95853L6.2321 6.27036C6.56957 6.22278 6.85958 6.0066 7.00157 5.69677L9.11632 1.08237C9.47218 0.305877 10.5278 0.305877 10.8837 1.08237L12.9985 5.69677C13.1405 6.0066 13.4305 6.22278 13.7679 6.27036L18.649 6.95853C19.442 7.07033 19.8047 8.10728 19.1953 8.71694L15.6013 12.3122C15.3712 12.5423 15.2675 12.8701 15.3233 13.1907L16.2103 18.2867C16.364 19.1698 15.472 19.7641 14.7804 19.3731L10 16.6704Z" stroke="white"/>
<path d="M40 16.6704L35.2195 19.3731C34.528 19.7641 33.636 19.1698 33.7897 18.2867L34.6766 13.1907C34.7324 12.8701 34.6287 12.5423 34.3987 12.3122L30.8047 8.71694C30.1952 8.10728 30.558 7.07033 31.351 6.95853L36.232 6.27036C36.5695 6.22278 36.8595 6.0066 37.0015 5.69677L39.1163 1.08237C39.4721 0.305877 40.5278 0.305877 40.8837 1.08237L42.9985 5.69677C43.1405 6.0066 43.4305 6.22278 43.7679 6.27036L48.649 6.95853C49.442 7.07033 49.8047 8.10728 49.1953 8.71694L45.6013 12.3122C45.3712 12.5423 45.2675 12.8701 45.3233 13.1907L46.2103 18.2867C46.364 19.1698 45.472 19.7641 44.7804 19.3731L40 16.6704Z" stroke="white"/>
<path d="M70 16.6704L65.2195 19.3731C64.528 19.7641 63.636 19.1698 63.7897 18.2867L64.6766 13.1907C64.7324 12.8701 64.6287 12.5423 64.3987 12.3122L60.8047 8.71694C60.1952 8.10728 60.558 7.07033 61.351 6.95853L66.232 6.27036C66.5695 6.22278 66.8595 6.0066 67.0015 5.69677L69.1163 1.08237C69.4721 0.305877 70.5278 0.305877 70.8837 1.08237L72.9985 5.69677C73.1405 6.0066 73.4305 6.22278 73.7679 6.27036L78.649 6.95853C79.442 7.07033 79.8047 8.10728 79.1953 8.71694L75.6013 12.3122C75.3712 12.5423 75.2675 12.8701 75.3233 13.1907L76.2103 18.2867C76.364 19.1698 75.472 19.7641 74.7804 19.3731L70 16.6704Z" stroke="white"/>
<path d="M100 16.6704L95.2195 19.3731C94.528 19.7641 93.636 19.1698 93.7897 18.2867L94.6766 13.1907C94.7324 12.8701 94.6287 12.5423 94.3987 12.3122L90.8047 8.71694C90.1952 8.10728 90.558 7.07033 91.351 6.95853L96.232 6.27036C96.5695 6.22278 96.8595 6.0066 97.0015 5.69677L99.1163 1.08237C99.4721 0.305877 100.528 0.305877 100.884 1.08237L102.998 5.69677C103.14 6.0066 103.43 6.22278 103.768 6.27036L108.649 6.95853C109.442 7.07033 109.805 8.10728 109.195 8.71694L105.601 12.3122C105.371 12.5423 105.267 12.8701 105.323 13.1907L106.21 18.2867C106.364 19.1698 105.472 19.7641 104.78 19.3731L100 16.6704Z" stroke="white"/>
<path d="M130 16.6704L125.22 19.3731C124.528 19.7641 123.636 19.1698 123.79 18.2867L124.677 13.1907C124.732 12.8701 124.629 12.5423 124.399 12.3122L120.805 8.71694C120.195 8.10728 120.558 7.07033 121.351 6.95853L126.232 6.27036C126.57 6.22278 126.86 6.0066 127.002 5.69677L129.116 1.08237C129.472 0.305877 130.528 0.305877 130.884 1.08237L132.998 5.69677C133.14 6.0066 133.43 6.22278 133.768 6.27036L138.649 6.95853C139.442 7.07033 139.805 8.10728 139.195 8.71694L135.601 12.3122C135.371 12.5423 135.267 12.8701 135.323 13.1907L136.21 18.2867C136.364 19.1698 135.472 19.7641 134.78 19.3731L130 16.6704Z" stroke="white"/>
</svg>
