<svg width="40" height="20" fill="none" xmlns="http://www.w3.org/2000/svg"><path d="M7.93 15h-.6v.6h.6V15Zm0-8.79h.6v-.6h-.6v.6Zm-3.33 0H4v.6h.6v-.6Zm0-1.71v-.6H4v.6h.6Zm8.52 0h.6v-.6h-.6v.6Zm0 1.71v.6h.6v-.6h-.6Zm-3.33 0v-.6h-.6v.6h.6Zm0 8.79v.6h.6V15h-.6Zm-1.26 0V6.21h-1.2V15h1.2Zm-.6-9.39H4.6v1.2h3.33v-1.2Zm-2.73.6V4.5H4v1.71h1.2ZM4.6 5.1h8.52V3.9H4.6v1.2Zm7.92-.6v1.71h1.2V4.5h-1.2Zm.6 1.11H9.79v1.2h3.33v-1.2Zm-3.93.6V15h1.2V6.21h-1.2Zm.6 8.19H7.93v1.2h1.86v-1.2Zm5.287.6h-.6v.6h.6V15Zm0-10.5v-.6h-.6v.6h.6Zm1.845 0h.6v-.6h-.6v.6Zm0 4.365h-.6v.6h.6v-.6Zm5.01 0v.6h.6v-.6h-.6Zm0-4.365v-.6h-.6v.6h.6Zm1.845 0h.6v-.6h-.6v.6Zm0 10.5v.6h.6V15h-.6Zm-1.845 0h-.6v.6h.6V15Zm0-4.425h.6v-.6h-.6v.6Zm-5.01 0v-.6h-.6v.6h.6Zm0 4.425v.6h.6V15h-.6Zm-1.245 0V4.5h-1.2V15h1.2Zm-.6-9.9h1.845V3.9h-1.845v1.2Zm1.245-.6v4.365h1.2V4.5h-1.2Zm.6 4.965h5.01v-1.2h-5.01v1.2Zm5.61-.6V4.5h-1.2v4.365h1.2Zm-.6-3.765h1.845V3.9h-1.845v1.2Zm1.245-.6V15h1.2V4.5h-1.2Zm.6 9.9h-1.845v1.2h1.845v-1.2Zm-1.245.6v-4.425h-1.2V15h1.2Zm-.6-5.025h-5.01v1.2h5.01v-1.2Zm-5.61.6V15h1.2v-4.425h-1.2Zm.6 3.825h-1.845v1.2h1.845v-1.2Zm10.616-.78-.43.418.002.002.428-.42Zm0-7.725-.43-.418.43.418Zm6.195-1.155-.244.548.004.002.24-.55Zm1.8 1.215.453.393.377-.434-.417-.395-.413.436ZM34.348 7.32l-.407.44.454.421.406-.468-.453-.393Zm-5.43-.225-.442-.405-.003.003.445.402Zm.015 5.31-.445.402.003.003.442-.405Zm4.065.75.259.541.01-.004-.269-.537Zm1.425-1.035.427-.422-.411-.416-.427.4.411.438Zm1.185 1.2.435.414.4-.422-.408-.414-.427.422Zm-1.875 1.395-.255-.543.255.543Zm-2.385-.135c-1.367 0-2.48-.46-3.382-1.38l-.856.84c1.138 1.16 2.565 1.74 4.238 1.74v-1.2Zm-3.38-1.378c-.905-.933-1.36-2.07-1.36-3.452h-1.2c0 1.678.566 3.12 1.7 4.288l.86-.836Zm-1.36-3.452c0-1.37.454-2.504 1.36-3.437l-.86-.836c-1.134 1.167-1.7 2.604-1.7 4.273h1.2Zm1.36-3.437c.899-.925 2.034-1.393 3.455-1.393v-1.2c-1.719 0-3.173.582-4.315 1.757l.86.836Zm3.455-1.393c.852 0 1.533.131 2.066.368l.488-1.096c-.727-.323-1.586-.472-2.554-.472v1.2Zm2.07.37c.57.25 1.113.613 1.628 1.1l.825-.87a6.881 6.881 0 0 0-1.972-1.33l-.481 1.1Zm1.587.272-1.185 1.365.906.786 1.185-1.365-.906-.786Zm-.324 1.318c-1.022-.946-2.14-1.465-3.348-1.465v1.2c.833 0 1.674.35 2.532 1.145l.816-.88Zm-3.348-1.465c-1.164 0-2.156.427-2.932 1.275l.884.81c.544-.592 1.212-.885 2.048-.885v-1.2Zm-2.935 1.278c-.758.84-1.13 1.872-1.13 3.057h1.2c0-.915.279-1.653.82-2.253l-.89-.804Zm-1.13 3.057c0 1.18.38 2.21 1.145 3.057l.89-.804c-.554-.613-.835-1.353-.835-2.253h-1.2Zm1.148 3.06c.775.846 1.762 1.275 2.917 1.275v-1.2c-.824 0-1.488-.291-2.033-.885l-.884.81Zm2.917 1.275c.674 0 1.295-.124 1.849-.389l-.518-1.082c-.366.175-.805.271-1.331.271v1.2Zm1.858-.393c.526-.263 1.047-.646 1.568-1.135l-.822-.874c-.46.431-.887.738-1.282.935l.536 1.074Zm.73-1.15 1.185 1.2.854-.844-1.185-1.2-.854.844Zm1.177.364c-.547.576-1.113.992-1.695 1.266l.51 1.086c.738-.346 1.422-.86 2.055-1.524l-.87-.828Zm-1.695 1.266c-.561.264-1.265.408-2.13.408v1.2c.995 0 1.882-.166 2.64-.522l-.51-1.086Z" fill="#fff"/></svg>