<svg width="20" height="20" fill="none" xmlns="http://www.w3.org/2000/svg"><path d="M20 3.894a8.654 8.654 0 0 1-2.363.638A4.026 4.026 0 0 0 19.441 2.3a8.273 8.273 0 0 1-2.6.978A4.139 4.139 0 0 0 13.846 2C11.576 2 9.75 3.814 9.75 6.038c0 .32.027.628.095.92a11.666 11.666 0 0 1-8.451-4.222 4.017 4.017 0 0 0-.562 2.04c0 1.399.732 2.638 1.821 3.356A4.098 4.098 0 0 1 .8 7.634v.045c0 1.962 1.421 3.591 3.285 3.966a4.15 4.15 0 0 1-1.075.133c-.262 0-.527-.014-.776-.069a4.131 4.131 0 0 0 3.831 2.813 8.32 8.32 0 0 1-5.084 1.722c-.336 0-.658-.015-.981-.056A11.675 11.675 0 0 0 6.29 18c7.545 0 11.67-6.154 11.67-11.488 0-.178-.006-.35-.015-.522A8.112 8.112 0 0 0 20 3.894Z" fill="#962FED"/></svg>
