<svg width="20" height="20" fill="none" xmlns="http://www.w3.org/2000/svg"><path d="M18.477.69c-.118.05-.618.292-1.114.538-.492.246-1.008.5-1.14.559l-.246.11-.27-.122c-1.523-.68-3.406-.336-4.625.848-.957.925-1.473 2.117-1.539 3.55l-.023.52-.18-.023c-2.8-.372-5.133-1.961-6.555-4.473-.187-.324-.32-.438-.555-.461-.25-.023-.402.039-.55.227-.168.21-.418.691-.528 1.015-.109.32-.214.973-.214 1.313.003.492.164 1.238.367 1.683.058.121.093.227.086.235-.008.011-.168-.028-.348-.082-.395-.121-.547-.125-.73-.028-.145.074-.313.344-.313.496 0 .051.035.246.078.434.34 1.45 1.18 2.566 2.488 3.312l.293.168-.207.059c-.117.035-.289.082-.382.106-.235.062-.325.128-.426.308-.207.371-.063.645.652 1.211.793.629 1.75 1.11 2.848 1.426.242.07.441.14.441.156 0 .05-.43.332-.781.512-.43.218-.945.386-1.504.492-.352.066-.633.086-1.488.101-1.203.02-1.325.04-1.485.278a.64.64 0 0 0-.035.617c.07.149.41.43.785.656 1.024.614 3.137 1.23 4.953 1.446 2.618.312 5.094.027 7.012-.809 1.09-.477 1.906-1.04 2.762-1.906 1.691-1.727 2.676-3.668 3.047-6.012.097-.629.097-2.187-.004-2.922l-.07-.515.48-.766c.262-.422.492-.824.516-.895.086-.28-.07-.582-.367-.699-.137-.055-.215-.058-.551-.023-.215.02-.461.039-.543.039h-.153l.489-.977c.265-.535.496-1.039.508-1.12.035-.224-.106-.477-.333-.59-.214-.106-.277-.106-.546.007Zm-1.055 1.878c0 .008-.149.316-.332.688-.356.718-.387.843-.262 1.09a.638.638 0 0 0 .2.222c.144.098.378.113.933.055.152-.016.281-.02.281-.008s-.101.183-.223.39c-.214.352-.226.383-.226.626 0 .14.035.519.074.843.086.668.098 1.739.027 2.305-.261 2.082-1.144 3.883-2.687 5.492a7.492 7.492 0 0 1-3.063 1.945c-2.335.797-5.578.782-8.355-.05-.246-.075-.422-.141-.39-.153a3.21 3.21 0 0 1 .351-.066 6.576 6.576 0 0 0 2.352-.906c.605-.399 1.464-1.176 1.554-1.418a.595.595 0 0 0-.261-.73c-.067-.044-.325-.11-.575-.153a9.267 9.267 0 0 1-2.386-.735c-.368-.175-.84-.453-.84-.492 0-.011.113-.07.254-.133.425-.195.918-.511 1-.644.097-.16.097-.473 0-.621-.106-.164-.196-.211-.657-.363-.949-.317-1.55-.688-2.097-1.297-.242-.274-.61-.828-.61-.926 0-.023.211-.04.579-.04.363 0 .624-.019.714-.05a.606.606 0 0 0 .391-.703c-.023-.086-.148-.281-.277-.441a3.932 3.932 0 0 1-.653-1.247c-.082-.296-.101-1.332-.027-1.406.031-.031.113.051.297.301 1.726 2.324 4.316 3.738 7.27 3.961.534.039.55.039.722-.05.25-.13.332-.294.305-.618-.094-1.102-.067-1.566.12-2.168.493-1.559 1.762-2.504 3.27-2.43.512.024.832.114 1.313.368.433.226.488.222 1.254-.157.59-.289.66-.32.66-.281Z" fill="#fff"/></svg>