<svg width="24" height="24" viewBox="0 0 24 24" fill="none" xmlns="http://www.w3.org/2000/svg">
<path d="M12 16.3772C11.6812 16.3772 11.4143 16.2663 11.199 16.0444C10.983 15.8232 10.875 15.549 10.875 15.2215V6.95827L8.76562 9.1252C8.54063 9.35634 8.27813 9.47191 7.97813 9.47191C7.67813 9.47191 7.40625 9.34671 7.1625 9.09631C6.9375 8.86517 6.82988 8.5905 6.83963 8.2723C6.84863 7.95486 6.95625 7.69021 7.1625 7.47833L11.2125 3.31782C11.325 3.20225 11.4469 3.12019 11.5781 3.07165C11.7094 3.02388 11.85 3 12 3C12.15 3 12.2906 3.02388 12.4219 3.07165C12.5531 3.12019 12.675 3.20225 12.7875 3.31782L16.8375 7.47833C17.0625 7.70947 17.1701 7.98376 17.1604 8.30119C17.1514 8.61939 17.0437 8.88443 16.8375 9.09631C16.6125 9.32745 16.3455 9.44764 16.0365 9.45689C15.7268 9.4669 15.4594 9.35634 15.2344 9.1252L13.125 6.95827V15.2215C13.125 15.549 13.0174 15.8232 12.8021 16.0444C12.5861 16.2663 12.3188 16.3772 12 16.3772ZM5.25 21C4.63125 21 4.10175 20.7739 3.6615 20.3216C3.2205 19.8686 3 19.3242 3 18.6886V16.3772C3 16.0498 3.10763 15.7751 3.32288 15.5532C3.53888 15.3321 3.80625 15.2215 4.125 15.2215C4.44375 15.2215 4.71112 15.3321 4.92712 15.5532C5.14237 15.7751 5.25 16.0498 5.25 16.3772V18.6886H18.75V16.3772C18.75 16.0498 18.858 15.7751 19.074 15.5532C19.2892 15.3321 19.5562 15.2215 19.875 15.2215C20.1938 15.2215 20.4608 15.3321 20.676 15.5532C20.892 15.7751 21 16.0498 21 16.3772V18.6886C21 19.3242 20.7799 19.8686 20.3396 20.3216C19.8986 20.7739 19.3687 21 18.75 21H5.25Z" fill="white" fill-opacity="0.92"/>
</svg>
