<svg width="20" height="20" fill="none" xmlns="http://www.w3.org/2000/svg"><g clip-path="url(#a)" fill="#fff"><path d="M3.125 3.082A3.952 3.952 0 0 0 .059 6.285c-.086.485-.086 6.945 0 7.43a3.951 3.951 0 0 0 2.476 3.023c.692.266.293.254 7.48.254 6.172 0 6.505-.004 6.84-.074a3.962 3.962 0 0 0 3.102-3.3c.027-.196.043-1.454.043-3.618 0-3.5-.008-3.676-.184-4.238a3.949 3.949 0 0 0-3.02-2.692c-.284-.054-1.089-.062-6.831-.058-6.106 0-6.527.008-6.84.07ZM16.957 4.32a2.834 2.834 0 0 1 1.762 1.852l.09.293v7.07l-.09.293c-.305.973-1.032 1.672-1.989 1.918-.289.07-.484.074-6.73.074-6.27 0-6.441 0-6.734-.078-.77-.195-1.457-.75-1.793-1.445-.309-.64-.301-.531-.301-4.297 0-3.75-.008-3.66.293-4.277.347-.723 1-1.258 1.785-1.465.277-.07.48-.074 6.828-.067l6.543.008.336.121Z"/><path d="M7.777 6.258a.963.963 0 0 0-.215.2c-.082.108-.082.12-.082 3.503s0 3.394.082 3.504c.211.285.497.355.801.191.453-.242 5.188-3.168 5.285-3.265.098-.094.118-.153.133-.34.012-.188 0-.25-.078-.36-.066-.101-.75-.55-2.758-1.812-2.953-1.856-2.883-1.82-3.168-1.621Zm2.645 2.676c.906.57 1.644 1.054 1.64 1.07-.011.031-3.374 2.105-3.414 2.105-.007 0-.015-.96-.015-2.132 0-2.004.004-2.133.066-2.11.04.016.813.496 1.723 1.067Z"/></g><defs><clipPath id="a"><path fill="#fff" d="M0 0h20v20H0z"/></clipPath></defs></svg>