<svg width="20" height="20" fill="none" xmlns="http://www.w3.org/2000/svg"><path d="M6.59 2.719c-.805.164-1.625.46-2.492.898-.59.293-1.282.707-1.426.852-.266.27-.848 1.445-1.235 2.504C.748 8.852.204 11.508.016 13.914c-.036.477-.004.543.464.996 1.532 1.473 3.504 2.39 5.282 2.457.492.02.558.016.664-.055.066-.039.476-.535.918-1.093l.8-1.024.372.032c.472.035 2.48.035 2.968 0l.371-.028.801 1.02c.442.562.856 1.05.918 1.093.227.137 1.23.067 2.04-.144 1.35-.355 2.796-1.191 3.905-2.258.5-.484.508-.496.446-1.203-.254-2.934-.934-5.816-1.844-7.828-.277-.61-.644-1.258-.793-1.41-.238-.235-1.43-.89-2.226-1.223-1.207-.504-2.528-.758-2.868-.55-.152.093-.148.09-.71 1.167l-.45.864H8.926l-.45-.864c-.562-1.078-.558-1.074-.71-1.168-.176-.105-.586-.097-1.176.024Zm.808 1.613c.141.277.258.516.258.523 0 .012-.172.047-.379.086-1.398.243-3.066.805-3.367 1.13-.074.077-.101.156-.11.327-.019.29.075.45.325.563.215.094.332.078.707-.094.95-.43 2.297-.765 3.676-.91.715-.078 2.27-.074 3 0 1.375.145 2.699.473 3.66.91.375.172.492.188.707.094.25-.113.344-.274.324-.563-.02-.355-.156-.46-1.02-.793a13.38 13.38 0 0 0-2.445-.664 3.56 3.56 0 0 1-.382-.078c-.008-.008.101-.242.246-.523.214-.418.273-.512.343-.512.145 0 .844.184 1.278.332.46.16 1.504.66 1.969.945.273.168.324.22.464.461.977 1.704 1.778 4.692 2.114 7.891l.054.508-.183.172c-1.211 1.14-3.04 2.02-4.25 2.047l-.262.007-.46-.585c-.255-.32-.462-.598-.462-.614 0-.012.102-.047.227-.07.425-.09 1.28-.348 1.746-.527.89-.344 1.844-.872 2.027-1.122.106-.148.106-.46 0-.609-.254-.34-.535-.36-.996-.074-.96.598-2.316 1.082-3.68 1.316-1.523.258-3.5.266-4.968.016-1.454-.246-2.817-.73-3.801-1.356-.418-.261-.715-.234-.961.098-.106.149-.106.461 0 .61.183.25 1.16.789 2.035 1.124.469.18 1.332.438 1.742.524.121.023.223.058.223.07 0 .016-.207.293-.461.613l-.461.586-.254-.003c-.773-.02-2.008-.457-2.941-1.051a9.098 9.098 0 0 1-1.157-.86c-.304-.261-.312-.27-.312-.445 0-.223.129-1.32.234-1.988.395-2.551 1.082-4.828 1.871-6.219.176-.313.207-.344.497-.52.878-.535 2.136-1.062 2.945-1.23.383-.082.355-.102.64.457Z" fill="#fff"/><path d="M6.809 7.984c-.762.184-1.383.829-1.594 1.645-.082.316-.082.91 0 1.23.207.805.848 1.47 1.578 1.641.273.063.867.031 1.098-.059.296-.117.703-.41.886-.64.239-.301.426-.703.504-1.094.313-1.582-1.035-3.07-2.472-2.723Zm.77 1.223c.66.336.776 1.402.21 1.926-.207.191-.312.234-.566.234-.508 0-.907-.488-.903-1.11 0-.128.02-.308.043-.398.059-.218.258-.504.418-.605.293-.18.512-.191.797-.047ZM12.328 7.992c-1.113.27-1.848 1.508-1.61 2.715.13.637.47 1.172.95 1.492.344.227.582.309.984.332.614.035 1.102-.156 1.54-.61.44-.46.66-1.019.656-1.687-.004-.675-.223-1.226-.66-1.672-.528-.527-1.188-.734-1.86-.57Zm.856 1.242c.093.055.222.184.289.285.492.743.078 1.848-.696 1.848-.254 0-.359-.043-.566-.234-.566-.524-.45-1.578.21-1.926.18-.094.247-.11.407-.09.102.012.262.067.356.117Z" fill="#fff"/></svg>