<svg width="30" height="30" viewBox="0 0 30 30" fill="none" xmlns="http://www.w3.org/2000/svg">
<path d="M1.596 8.265C2.84401 5.77987 4.75856 3.69077 7.12565 2.2312C9.49274 0.77164 12.2191 -0.000875353 15 7.44347e-07C19.0425 7.44347e-07 22.4385 1.485 25.035 3.9075L20.7345 8.2095C19.179 6.723 17.202 5.9655 15 5.9655C11.0925 5.9655 7.785 8.6055 6.6075 12.15C6.3075 13.05 6.1365 14.01 6.1365 15C6.1365 15.99 6.3075 16.95 6.6075 17.85C7.7865 21.396 11.0925 24.0345 15 24.0345C17.0175 24.0345 18.735 23.502 20.079 22.602C20.8582 22.089 21.5252 21.4233 22.0398 20.6452C22.5544 19.8671 22.9059 18.9928 23.073 18.075H15V12.273H29.127C29.304 13.254 29.4 14.277 29.4 15.3405C29.4 19.9095 27.765 23.7555 24.927 26.3655C22.446 28.6575 19.05 30 15 30C13.03 30.0008 11.0791 29.6133 9.25882 28.8598C7.43858 28.1063 5.78468 27.0014 4.39164 25.6084C2.9986 24.2153 1.89374 22.5614 1.1402 20.7412C0.386661 18.9209 -0.000787292 16.9701 1.20107e-06 15C1.20107e-06 12.579 0.579001 10.29 1.596 8.265Z" fill="white" fill-opacity="0.92"/>
</svg>
