<svg width="20" height="20" fill="none" xmlns="http://www.w3.org/2000/svg"><path d="M19.063.914c-.645.23-18.63 7.258-18.75 7.324-.157.086-.313.348-.313.528 0 .07.04.203.09.297l.086.175 2.578 1.29c2.351 1.175 2.594 1.288 2.773 1.288.207 0 .067.079 4.512-2.511.121-.07.05-.004-1.383 1.261-.636.563-1.183 1.079-1.23 1.157-.082.14-.082.168-.082 3.136 0 2.864.004 3 .074 3.141.152.297.594.414.867.23.102-.066 2.086-2.628 2.258-2.91.02-.039.73.352 2.684 1.465l2.652 1.516h.242c.277 0 .418-.078.531-.297C16.722 17.87 20 1.62 20 1.414c0-.18-.16-.41-.352-.508-.214-.105-.27-.105-.585.008Zm-1.957 8.684a772.275 772.275 0 0 1-1.438 7.09c-.016.015-1.156-.614-2.535-1.399-1.735-.988-2.559-1.437-2.664-1.45a.52.52 0 0 0-.32.063c-.141.067-.278.23-.86 1.004l-.695.926.004-1.773v-1.774l3.558-3.144c1.953-1.73 3.594-3.2 3.645-3.262a.523.523 0 0 0 .066-.574c-.14-.317-.441-.48-.719-.387-.07.023-2.273 1.29-4.894 2.813L5.492 10.5 3.84 9.676c-.965-.485-1.63-.836-1.602-.856.028-.011 1.727-.68 3.778-1.48l8.105-3.16c2.406-.938 4.379-1.692 4.387-1.676.008.02-.621 3.21-1.402 7.094Z" fill="#fff"/></svg>